<svg width="118" height="44" viewBox="0 0 118 44" fill="none" xmlns="http://www.w3.org/2000/svg">
<g clip-path="url(#clip0)">
<path d="M118 38.0534C118 41.337 115.665 44 112.785 44H5.2162C2.33587 44.0003 0 41.3373 0 38.0534V5.94605C0 2.66271 2.33587 0 5.2162 0H112.785C115.665 0 118 2.66271 118 5.94605V38.0534H118Z" fill="black"/>
<path d="M118 38.0534C118 41.337 115.665 44 112.785 44H5.2162C2.33587 44.0003 0 41.3373 0 38.0534V5.94605C0 2.66271 2.33587 0 5.2162 0H112.785C115.665 0 118 2.66271 118 5.94605V38.0534H118Z" fill="black"/>
<path d="M8.85059 8.47095V38.2677L22.0316 23.3695L8.85059 8.47095Z" fill="url(#paint0_linear)"/>
<path d="M25.5717 19.3679L20.251 15.8662L8.85059 8.36279V8.47114L22.0316 23.3697L25.5717 19.3679Z" fill="url(#paint1_linear)"/>
<path d="M8.85059 38.2676V38.376L20.251 30.8723L25.5715 27.3707L22.0316 23.3694L8.85059 38.2676Z" fill="url(#paint2_linear)"/>
<path d="M25.5724 19.3677L22.0322 23.3695L25.5721 27.3708L31.6528 23.3692L25.5724 19.3677Z" fill="url(#paint3_linear)"/>
<path d="M91.8324 29.1939C91.3373 29.1939 90.8856 29.0898 90.4766 28.8818C90.0676 28.6735 89.7238 28.3532 89.4463 27.9214H89.3632C89.4186 28.4274 89.4463 28.9071 89.4463 29.3602V32.9259H88.2955V20.3703H89.2317L89.3909 21.5564H89.4463C89.7425 21.0817 90.0872 20.7396 90.48 20.5286C90.8729 20.3177 91.3239 20.2123 91.8322 20.2123C92.8404 20.2123 93.6185 20.6052 94.1662 21.3904C94.7141 22.1757 94.9882 23.2776 94.9882 24.6951C94.9882 26.1184 94.7095 27.2237 94.1528 28.0124C93.5957 28.8002 92.8224 29.1939 91.8324 29.1939V29.1939ZM91.6659 21.3271C90.8891 21.3271 90.3273 21.5724 89.9806 22.0624C89.6338 22.5526 89.4557 23.3329 89.4463 24.4029V24.6951C89.4463 25.913 89.6244 26.784 89.9806 27.3086C90.3368 27.8333 90.908 28.095 91.6935 28.095C92.3506 28.095 92.8651 27.7923 93.2374 27.1861C93.6093 26.5802 93.7955 25.7447 93.7955 24.6793C93.7955 23.5993 93.6093 22.7698 93.2374 22.1928C92.8653 21.6153 92.3411 21.3271 91.6659 21.3271V21.3271ZM97.6542 29.0356H96.503V16.7333H97.6542V29.0356ZM104.274 29.0356L104.045 27.8023H103.989C103.61 28.3456 103.232 28.7135 102.855 28.9052C102.478 29.098 102.008 29.194 101.444 29.194C100.69 29.194 100.1 28.9725 99.6717 28.5299C99.2438 28.0873 99.0301 27.4577 99.0301 26.6404C99.0301 24.8908 100.258 23.9735 102.713 23.8888L104.004 23.8412V23.3036C104.004 22.6236 103.875 22.1213 103.618 21.7975C103.362 21.473 102.951 21.311 102.387 21.311C101.754 21.311 101.037 21.5325 100.237 21.9751L99.8833 20.971C100.258 20.739 100.668 20.5573 101.115 20.4256C101.561 20.2938 102.008 20.2278 102.457 20.2278C103.363 20.2278 104.035 20.4569 104.472 20.9155C104.908 21.3742 105.127 22.1094 105.127 23.1217V29.0354H104.274V29.0356H104.274ZM101.673 28.111C102.389 28.111 102.952 27.8869 103.362 27.4391C103.77 26.9912 103.975 26.3637 103.975 25.5569V24.7742L102.824 24.8292C101.908 24.8668 101.249 25.0283 100.843 25.3163C100.439 25.6034 100.237 26.0502 100.237 26.6564C100.237 27.1306 100.362 27.4919 100.615 27.7391C100.867 27.9871 101.219 28.111 101.673 28.111ZM105.795 20.3703H107.03L108.694 25.312C109.059 26.4402 109.286 27.2544 109.374 27.7554H109.43C109.49 27.4861 109.616 27.0267 109.808 26.375C110 25.7239 110.628 23.7228 111.691 20.3703H112.926L109.659 30.2377C109.335 31.2129 108.957 31.9048 108.524 32.314C108.092 32.7221 107.561 32.9259 106.933 32.9259C106.582 32.9259 106.235 32.8812 105.892 32.7918V31.7404C106.146 31.8035 106.431 31.8353 106.746 31.8353C107.536 31.8353 108.1 31.3293 108.438 30.3171L108.861 29.084L105.795 20.3703V20.3703ZM70.5042 21.1756C70.8696 21.5203 71.6328 22.2446 71.6328 23.6229C71.6328 24.9633 70.9649 25.599 70.297 26.1962C70.0903 26.4315 69.8518 26.6861 69.8518 27.0853C69.8518 27.4832 70.0901 27.701 70.2656 27.8643L70.8382 28.3708C71.5377 29.0417 72.1731 29.6584 72.1731 30.9094C72.1731 32.613 70.7261 34.3342 67.9918 34.3342C65.686 34.3342 64.5735 33.084 64.5735 31.742C64.5735 31.0898 64.8584 30.1659 65.7979 29.5308C66.783 28.8421 68.1194 28.7524 68.8346 28.6966C68.6113 28.3708 68.3575 28.0263 68.3575 27.4654C68.3575 27.1577 68.4373 26.9762 68.5165 26.7577C68.3409 26.7761 68.1663 26.7942 68.0071 26.7942C66.3222 26.7942 65.3683 25.3623 65.3683 23.9493C65.3683 23.1154 65.7026 22.1904 66.3855 21.5206C67.2921 20.6688 68.3732 20.5234 69.2326 20.5234H72.5072L71.4895 21.1758H70.5042V21.1756H70.5042ZM69.3749 29.2234C69.2478 29.2045 69.1679 29.2045 69.0097 29.2045C68.8666 29.2045 68.0068 29.2415 67.3399 29.4959C66.9901 29.6397 65.9722 30.0747 65.9722 31.3622C65.9722 32.6485 67.0699 33.5742 68.7714 33.5742C70.2968 33.5742 71.1086 32.7387 71.1086 31.616C71.1086 30.6898 70.5838 30.2025 69.3749 29.2234ZM69.8363 25.7791C70.2015 25.3618 70.2329 24.7824 70.2329 24.4558C70.2329 23.1511 69.5495 21.1211 68.2301 21.1211C67.8162 21.1211 67.3715 21.3565 67.117 21.7194C66.8471 22.1 66.7668 22.5889 66.7668 23.0607C66.7668 24.2748 67.3869 26.2869 68.755 26.2869C69.1525 26.2869 69.5809 26.0694 69.8363 25.7791V25.7791ZM60.4942 28.9333C57.9706 28.9333 56.6212 26.6893 56.6212 24.6622C56.6212 22.2914 58.3194 20.2657 60.7332 20.2657C63.0656 20.2657 64.5262 22.3459 64.5262 24.536C64.5264 26.6704 63.0825 28.9333 60.4942 28.9333ZM62.4783 27.4677C62.8599 26.8881 62.9551 26.1646 62.9551 25.4583C62.9551 23.8654 62.2884 20.8258 60.3198 20.8258C59.7961 20.8258 59.2724 21.0615 58.8915 21.4423C58.2723 22.0747 58.1607 22.8713 58.1607 23.6503C58.1607 25.4404 58.9386 28.3892 60.8599 28.3892C61.4789 28.3892 62.114 28.046 62.4783 27.4677V27.4677ZM51.8901 28.9333C49.366 28.9333 48.0164 26.6893 48.0164 24.6622C48.0164 22.2914 49.7153 20.2657 52.1285 20.2657C54.4616 20.2657 55.9219 22.3459 55.9219 24.536C55.9221 26.6704 54.4779 28.9333 51.8901 28.9333ZM53.8747 27.4677C54.2555 26.8881 54.3511 26.1646 54.3511 25.4583C54.3511 23.8654 53.6838 20.8258 51.7153 20.8258C51.1918 20.8258 50.6677 21.0615 50.287 21.4423C49.6678 22.0747 49.5568 22.8713 49.5568 23.6503C49.5568 25.4404 50.3343 28.3892 52.2558 28.3892C52.875 28.3892 53.5097 28.046 53.8747 27.4677V27.4677ZM46.8038 28.6496L44.5212 29.25C43.5952 29.4141 42.7656 29.5584 41.8883 29.5584C37.4827 29.5584 35.8076 25.8651 35.8076 22.9723C35.8076 19.4433 38.1852 16.1694 42.2555 16.1694C43.1177 16.1694 43.9468 16.3146 44.6968 16.5513C45.8937 16.9334 46.4523 17.406 46.8036 17.6792L45.4785 19.1164L44.9202 19.2613L45.319 18.5334C44.7767 17.9335 43.7862 16.824 41.9037 16.824C39.3819 16.824 37.4823 19.0081 37.4823 22.1915C37.4823 25.6108 39.6532 28.831 43.1317 28.831C44.1542 28.831 44.6798 28.5949 45.1589 28.3761V25.4477L42.7495 25.5932L44.0257 24.81H47.4094L46.9949 25.2647C46.8823 25.3744 46.8668 25.4112 46.835 25.5553C46.8184 25.7194 46.8034 26.2475 46.8034 26.4292V28.6496H46.8038V28.6496Z" fill="#F9F9F9"/>
<path d="M75.5491 28.1259C75.0222 28.0712 74.9119 27.9626 74.9119 27.2523V16.9554C74.9151 16.9163 74.9172 16.876 74.9204 16.8381C74.9848 16.2017 75.1442 16.0926 75.6395 15.7646H73.3565L72.1592 16.4197H73.3794V16.4279L73.3784 16.4213V27.6531C73.3784 28.0162 73.3155 28.0715 72.9479 28.6166H75.7731L76.3637 28.2174C76.0927 28.1798 75.8209 28.1622 75.5491 28.1259V28.1259ZM82.0434 28.2932C81.8697 28.4018 81.6953 28.5288 81.5215 28.6185C80.9976 28.8893 80.4589 28.9619 79.9825 28.9619C79.4766 28.9619 78.6834 28.9246 77.8744 28.2569C76.7499 27.3527 76.2585 25.799 76.2585 24.4444C76.2585 21.6444 78.2555 20.2714 79.8879 20.2714C80.4587 20.2714 81.0459 20.4336 81.5213 20.7777C82.3131 21.3728 82.5191 22.1496 82.6294 22.5654L78.9056 24.2824L77.685 24.3908C78.0806 26.6853 79.4436 28.0212 80.9499 28.0212C81.758 28.0212 82.3447 27.6967 82.8834 27.3901L82.0434 28.2932V28.2932ZM80.554 22.9083C80.8546 22.7823 81.0131 22.6735 81.0131 22.4207C81.0131 21.6986 80.3002 20.867 79.4436 20.867C78.8089 20.867 77.621 21.4275 77.621 23.3783C77.621 23.6855 77.6529 24.0105 77.6693 24.3368L80.554 22.9083V22.9083ZM83.5732 20.395V21.5871H83.4461V20.395H83.1V20.2714H83.919V20.395H83.5732V20.395ZM84.999 21.5871V20.3839H84.9932L84.6711 21.5871H84.5717L84.2469 20.3839H84.2427V21.5871H84.1273V20.2714H84.325L84.619 21.3349H84.6231L84.9126 20.2714H85.1132V21.5871H84.999V21.5871Z" fill="#F9F9F9"/>
<path d="M38.9786 12.627H38.1854C38.1854 12.5026 38.1102 12.1505 37.9598 11.5704H36.8148C36.6595 12.141 36.5818 12.4932 36.5818 12.627H35.8359C35.8359 12.5536 36.0288 11.9509 36.4145 10.819C36.8003 9.68715 36.9931 9.0636 36.9931 8.94896H37.93C37.93 9.05626 38.1047 9.67059 38.4542 10.7922C38.8037 11.9138 38.9786 12.5253 38.9786 12.627V12.627ZM37.8336 11.0307C37.551 10.059 37.4098 9.53357 37.4098 9.45439H37.3701C37.3701 9.52779 37.2238 10.0532 36.9315 11.0307H37.8336V11.0307ZM42.1743 12.627H41.5622C41.5622 12.5497 41.335 12.1421 40.8807 11.4039C40.405 10.626 40.1339 10.0943 40.068 9.80788H40.0283C40.0696 10.2202 40.0904 10.5931 40.0904 10.9266C40.0904 11.3918 40.1019 11.9588 40.125 12.6273H39.5152C39.5399 12.0435 39.5524 11.4024 39.5524 10.7036C39.5524 10.0162 39.5399 9.43129 39.5152 8.94924H40.2512C40.2512 9.04918 40.4551 9.4476 40.8632 10.1442C41.2976 10.8843 41.5472 11.3863 41.6116 11.6501H41.6488C41.6091 11.2301 41.5892 10.8535 41.5892 10.52C41.5892 10.0099 41.5777 9.48599 41.5546 8.94924H42.1743C42.151 9.4163 42.1397 10.0012 42.1397 10.7036C42.1394 11.4113 42.151 12.0524 42.1743 12.627V12.627ZM45.7661 10.6607C45.7661 11.1956 45.6157 11.6627 45.3151 12.0619C45.0142 12.4614 44.5929 12.6607 44.051 12.6607C43.8065 12.6607 43.4694 12.6494 43.0399 12.6268C43.0613 12.058 43.0722 11.4165 43.0722 10.7031C43.0722 10.0177 43.0613 9.43287 43.0399 8.9487H43.4736C43.5446 8.9487 43.6503 8.9458 43.7908 8.94028C43.9311 8.93476 44.0229 8.93187 44.0658 8.93187C44.6622 8.93187 45.0945 9.10149 45.3633 9.44048C45.6318 9.77946 45.7661 10.186 45.7661 10.6607V10.6607ZM45.0896 10.7822C45.0896 10.4206 44.9971 10.1161 44.8121 9.86806C44.6271 9.6206 44.3445 9.49675 43.9645 9.49675C43.8935 9.49675 43.7961 9.50517 43.672 9.52226C43.6884 9.8991 43.6967 10.2925 43.6967 10.7031C43.6967 11.1533 43.705 11.5996 43.7213 12.0422C43.8274 12.0665 43.9352 12.0788 44.0434 12.079C44.3987 12.079 44.6617 11.953 44.8326 11.7016C45.0036 11.4502 45.0896 11.1438 45.0896 10.7822V10.7822ZM49.0783 12.627H48.3447C48.1529 11.9604 48.006 11.5488 47.9036 11.3926C47.8011 11.2361 47.636 11.158 47.408 11.158C47.312 11.158 47.2204 11.1591 47.133 11.1609C47.133 11.6451 47.1404 12.1337 47.1554 12.627H46.4665C46.488 12.0582 46.4988 11.4168 46.4988 10.7033C46.4988 10.018 46.488 9.43311 46.4665 8.94896H46.8951C46.9447 8.94896 47.0484 8.94607 47.2062 8.94055C47.364 8.93502 47.5098 8.93211 47.6436 8.93211C48.4019 8.93211 48.7812 9.2277 48.7812 9.81917C48.7812 10.2881 48.5648 10.6147 48.132 10.7996V10.8419C48.2988 10.8945 48.445 11.0431 48.5705 11.2866C48.6958 11.5304 48.8651 11.9772 49.0783 12.627V12.627ZM48.149 10.028C48.149 9.65321 47.9375 9.46572 47.5146 9.46572C47.3593 9.46572 47.222 9.47887 47.1032 9.50517C47.1215 9.79708 47.1305 10.1776 47.1305 10.6465C47.2214 10.6505 47.2982 10.652 47.3609 10.652C47.8862 10.6523 48.149 10.4443 48.149 10.028V10.028ZM52.6306 10.7201C52.6306 11.2982 52.4754 11.7776 52.1646 12.1581C51.8539 12.5384 51.4698 12.7288 51.0123 12.7288C50.576 12.7288 50.2108 12.5542 49.9169 12.2047C49.6228 11.8554 49.4758 11.4113 49.4758 10.8729C49.4758 10.2949 49.6311 9.81547 49.9418 9.43493C50.2523 9.05466 50.6365 8.86426 51.0942 8.86426C51.5304 8.86426 51.8954 9.03835 52.1896 9.3868C52.4837 9.73528 52.6306 10.1795 52.6306 10.7201V10.7201ZM51.9469 10.8019C51.9469 10.4083 51.8585 10.089 51.6818 9.84415C51.5048 9.59932 51.2868 9.47703 51.0275 9.47703C50.7862 9.47703 50.5813 9.60037 50.4129 9.84705C50.2445 10.0937 50.1598 10.4054 50.1598 10.7822C50.1598 11.1738 50.2487 11.4925 50.4263 11.7384C50.6039 11.9843 50.8215 12.1071 51.0794 12.1071C51.3205 12.1071 51.5256 11.9833 51.694 11.7355C51.8624 11.4881 51.9469 11.1767 51.9469 10.8019V10.8019ZM54.032 12.627H53.3306C53.3521 12.0432 53.3629 11.4021 53.3629 10.7033C53.3629 10.0159 53.3521 9.43101 53.3306 8.94896H54.032C54.0105 9.42364 53.9996 10.0083 53.9996 10.7033C53.9996 11.4131 54.0105 12.0545 54.032 12.627ZM57.624 10.6607C57.624 11.1956 57.4736 11.6627 57.173 12.0619C56.8722 12.4614 56.4509 12.6607 55.9089 12.6607C55.6644 12.6607 55.3273 12.6494 54.8978 12.6268C54.9192 12.058 54.9301 11.4165 54.9301 10.7031C54.9301 10.0177 54.9193 9.43287 54.8978 8.9487H55.3315C55.4026 8.9487 55.5082 8.9458 55.6487 8.94028C55.789 8.93476 55.8808 8.93187 55.9237 8.93187C56.5201 8.93187 56.9524 9.10149 57.2212 9.44048C57.4897 9.77946 57.624 10.186 57.624 10.6607V10.6607ZM56.9476 10.7822C56.9476 10.4206 56.8551 10.1161 56.67 9.86806C56.485 9.6206 56.2024 9.49675 55.8224 9.49675C55.7514 9.49675 55.654 9.50517 55.5299 9.52226C55.5463 9.8991 55.5546 10.2925 55.5546 10.7031C55.5546 11.1533 55.5629 11.5996 55.5792 12.0422C55.6853 12.0665 55.7931 12.0788 55.9013 12.079C56.2566 12.079 56.5196 11.953 56.6905 11.7016C56.8615 11.4502 56.9476 11.1438 56.9476 10.7822ZM62.3894 12.627H61.5962C61.5962 12.5026 61.521 12.1505 61.3704 11.5704H60.2254C60.0701 12.141 59.9924 12.4932 59.9924 12.627H59.2468C59.2468 12.5536 59.4396 11.9509 59.8254 10.819C60.2111 9.68715 60.404 9.0636 60.404 8.94896H61.3409C61.3409 9.05626 61.5157 9.67059 61.865 10.7922C62.2143 11.9138 62.3894 12.5253 62.3894 12.627ZM61.2444 11.0307C60.9618 10.059 60.8204 9.53357 60.8204 9.45439H60.7807C60.7807 9.52779 60.6347 10.0532 60.3424 11.0307H61.2444V11.0307ZM65.2801 9.912C65.2801 10.3622 65.1334 10.6946 64.8401 10.9092C64.5469 11.1238 64.1872 11.2314 63.7609 11.2314C63.6832 11.2314 63.628 11.2295 63.5948 11.2258C63.5948 11.5801 63.6038 12.0469 63.622 12.627H62.9255C62.9469 12.0829 62.9578 11.4415 62.9578 10.7033C62.9578 10.0253 62.947 9.44048 62.9255 8.94896H63.3567C63.4178 8.94896 63.535 8.94607 63.7085 8.94055C63.882 8.93502 64.0322 8.93211 64.1595 8.93211C64.4733 8.93211 64.7386 9.01311 64.955 9.1751C65.1714 9.33712 65.2801 9.58249 65.2801 9.912V9.912ZM64.6408 10.0674C64.6408 9.66452 64.4062 9.46283 63.937 9.46283C63.8195 9.46283 63.6956 9.47701 63.5653 9.50517C63.5835 9.86125 63.5925 10.2641 63.5925 10.7144C63.6338 10.7183 63.6818 10.7199 63.7362 10.7199C64.3393 10.7201 64.6408 10.5027 64.6408 10.0674V10.0674ZM68.2525 9.912C68.2525 10.3622 68.1058 10.6946 67.8128 10.9092C67.5195 11.1238 67.1596 11.2314 66.7333 11.2314C66.6556 11.2314 66.6004 11.2295 66.5672 11.2258C66.5672 11.5801 66.5762 12.0469 66.5944 12.627H65.8979C65.9194 12.0829 65.9302 11.4415 65.9302 10.7033C65.9302 10.0253 65.9194 9.44048 65.8979 8.94896H66.3291C66.3903 8.94896 66.5074 8.94607 66.6809 8.94055C66.8544 8.93502 67.0046 8.93211 67.132 8.93211C67.4457 8.93211 67.711 9.01311 67.9274 9.1751C68.1438 9.33712 68.2525 9.58249 68.2525 9.912V9.912ZM67.6132 10.0674C67.6132 9.66452 67.3786 9.46283 66.9094 9.46283C66.7919 9.46283 66.668 9.47701 66.5377 9.50517C66.5559 9.86125 66.5649 10.2641 66.5649 10.7144C66.6062 10.7183 66.6542 10.7199 66.7086 10.7199C67.3117 10.7201 67.6132 10.5027 67.6132 10.0674V10.0674ZM73.1122 10.7201C73.1122 11.2982 72.957 11.7776 72.6462 12.1581C72.3355 12.5387 71.9513 12.7288 71.4939 12.7288C71.0576 12.7288 70.6924 12.5542 70.3985 12.2047C70.1046 11.8554 69.9574 11.4113 69.9574 10.8729C69.9574 10.2949 70.1127 9.81547 70.4234 9.43493C70.7342 9.05439 71.1183 8.86426 71.5758 8.86426C72.012 8.86426 72.3772 9.03835 72.6711 9.3868C72.9651 9.73528 73.1122 10.1795 73.1122 10.7201V10.7201ZM72.4282 10.8019C72.4282 10.4083 72.3398 10.089 72.1631 9.84415C71.9864 9.59932 71.7682 9.47703 71.5089 9.47703C71.2675 9.47703 71.0627 9.60037 70.8943 9.84705C70.7259 10.0937 70.6414 10.4054 70.6414 10.7822C70.6414 11.1738 70.7303 11.4925 70.9079 11.7384C71.0855 11.9843 71.3031 12.1071 71.5608 12.1071C71.8021 12.1071 72.0069 11.9833 72.1754 11.7355C72.344 11.4881 72.4282 11.1767 72.4282 10.8019V10.8019ZM76.4713 12.627H75.8592C75.8592 12.5497 75.6322 12.1421 75.1777 11.4039C74.702 10.626 74.4309 10.0943 74.365 9.80788H74.3253C74.3666 10.2202 74.3874 10.5931 74.3874 10.9266C74.3874 11.3918 74.3989 11.9588 74.422 12.6273H73.8122C73.8369 12.0435 73.8494 11.4024 73.8494 10.7036C73.8494 10.0162 73.8369 9.43129 73.8122 8.94924H74.5482C74.5482 9.04918 74.7523 9.4476 75.1602 10.1442C75.5949 10.8843 75.8442 11.3863 75.9086 11.6501H75.9458C75.9061 11.2301 75.8863 10.8535 75.8863 10.52C75.8863 10.0099 75.8747 9.48599 75.8516 8.94924H76.4713C76.448 9.4163 76.4367 10.0012 76.4367 10.7036C76.4367 11.4113 76.4482 12.0524 76.4713 12.627V12.627Z" fill="#F9F9FA"/>
</g>
<defs>
<linearGradient id="paint0_linear" x1="15.4411" y1="8.47099" x2="15.4411" y2="38.2678" gradientUnits="userSpaceOnUse">
<stop stop-color="#257CB0"/>
<stop offset="0.286" stop-color="#4A93B5"/>
<stop offset="0.767" stop-color="#78BCBB"/>
<stop offset="1" stop-color="#89CFBD"/>
</linearGradient>
<linearGradient id="paint1_linear" x1="8.8508" y1="15.866" x2="25.5719" y2="15.866" gradientUnits="userSpaceOnUse">
<stop stop-color="#52C1AD"/>
<stop offset="1" stop-color="#DEE89A"/>
</linearGradient>
<linearGradient id="paint2_linear" x1="17.211" y1="23.3694" x2="17.211" y2="38.376" gradientUnits="userSpaceOnUse">
<stop stop-color="#EC413D"/>
<stop offset="0.167" stop-color="#DA4452"/>
<stop offset="0.575" stop-color="#B0487A"/>
<stop offset="0.862" stop-color="#954A92"/>
<stop offset="1" stop-color="#8A4A9D"/>
</linearGradient>
<linearGradient id="paint3_linear" x1="26.8426" y1="19.3677" x2="26.8426" y2="27.3705" gradientUnits="userSpaceOnUse">
<stop stop-color="#F58879"/>
<stop offset="0.119" stop-color="#F69079"/>
<stop offset="0.713" stop-color="#FCB877"/>
<stop offset="1" stop-color="#FEC874"/>
</linearGradient>
<clipPath id="clip0">
<rect width="118" height="44" fill="white"/>
</clipPath>
</defs>
</svg>
