<svg width="228" height="68" viewBox="0 0 228 68" fill="none" xmlns="http://www.w3.org/2000/svg">
<path d="M228 58.8098C228 63.8845 223.488 68 217.923 68H10.0788C4.51337 68.0004 0 63.8849 0 58.8098V9.18935C0 4.11509 4.51337 0 10.0788 0H217.923C223.488 0 228 4.11509 228 9.18935L228 58.8098Z" fill="black"/>
<path d="M14 8.1748V56.256L37.0109 32.2156L14 8.1748Z" fill="url(#paint0_linear)"/>
<path d="M43.1911 25.7582L33.9024 20.1078L14 8V8.17484L37.0109 32.2156L43.1911 25.7582Z" fill="url(#paint1_linear)"/>
<path d="M14 56.2562V56.431L33.9024 44.3228L43.1907 38.6724L37.0109 32.2158L14 56.2562Z" fill="url(#paint2_linear)"/>
<path d="M43.6431 26.2524L37.4629 32.7099L43.6427 39.1665L54.2581 32.7095L43.6431 26.2524Z" fill="url(#paint3_linear)"/>
<path d="M160.318 43.1086C159.453 43.1086 158.665 42.9406 157.951 42.6049C157.237 42.2688 156.637 41.752 156.152 41.0552H156.007C156.104 41.8716 156.152 42.6457 156.152 43.3768V49.1307H154.143V28.8705H155.778L156.055 30.7844H156.152C156.669 30.0184 157.271 29.4663 157.957 29.126C158.643 28.7856 159.43 28.6155 160.317 28.6155C162.077 28.6155 163.436 29.2495 164.392 30.5166C165.349 31.7837 165.827 33.5618 165.827 35.8491C165.827 38.1457 165.34 39.9293 164.369 41.202C163.396 42.4733 162.046 43.1086 160.318 43.1086ZM160.027 30.4143C158.671 30.4143 157.69 30.8103 157.085 31.6009C156.48 32.3919 156.169 33.651 156.152 35.3777V35.8491C156.152 37.8143 156.463 39.2198 157.085 40.0664C157.707 40.9131 158.704 41.3353 160.075 41.3353C161.222 41.3353 162.121 40.8468 162.771 39.8687C163.42 38.891 163.745 37.5428 163.745 35.8237C163.745 34.0808 163.42 32.7424 162.771 31.8113C162.121 30.8794 161.206 30.4143 160.027 30.4143ZM170.481 42.8532H168.471V23.0016H170.481V42.8532ZM182.037 42.8532L181.637 40.863H181.541C180.879 41.7396 180.219 42.3333 179.561 42.6427C178.903 42.9537 178.082 43.1087 177.097 43.1087C175.781 43.1087 174.75 42.7514 174.003 42.0371C173.256 41.323 172.883 40.307 172.883 38.9881C172.883 36.1648 175.027 34.6847 179.313 34.548L181.566 34.4712V33.6038C181.566 32.5064 181.341 31.6959 180.893 31.1735C180.446 30.6498 179.728 30.3884 178.744 30.3884C177.638 30.3884 176.386 30.7458 174.99 31.46L174.373 29.8398C175.027 29.4655 175.743 29.1723 176.523 28.9596C177.301 28.747 178.082 28.6405 178.865 28.6405C180.447 28.6405 181.62 29.0102 182.383 29.7502C183.145 30.4903 183.527 31.6768 183.527 33.3102V42.8528H182.037V42.8532H182.037ZM177.497 41.3611C178.747 41.3611 179.73 40.9995 180.445 40.2769C181.159 39.5542 181.517 38.5417 181.517 37.2397V35.9768L179.506 36.0655C177.908 36.1262 176.756 36.3868 176.049 36.8514C175.343 37.3148 174.99 38.0358 174.99 39.014C174.99 39.7791 175.209 40.3622 175.65 40.761C176.09 41.1612 176.705 41.3611 177.497 41.3611ZM184.694 28.8705H186.848L189.755 36.8446C190.392 38.6651 190.788 39.979 190.942 40.7873H191.039C191.144 40.3528 191.364 39.6114 191.698 38.5599C192.033 37.5092 193.13 34.2802 194.985 28.8705H197.142L191.438 44.7929C190.873 46.3664 190.213 47.4829 189.458 48.1432C188.703 48.8018 187.777 49.1307 186.68 49.1307C186.066 49.1307 185.461 49.0586 184.863 48.9143V47.2177C185.307 47.3195 185.803 47.3709 186.352 47.3709C187.733 47.3709 188.717 46.5544 189.307 44.9211L190.045 42.9312L184.694 28.8705ZM123.084 30.1699C123.722 30.7262 125.054 31.8949 125.054 34.119C125.054 36.282 123.888 37.3076 122.722 38.2714C122.361 38.6511 121.945 39.0619 121.945 39.7061C121.945 40.3481 122.361 40.6995 122.667 40.9631L123.667 41.7803C124.888 42.8629 125.997 43.858 125.997 45.8767C125.997 48.6257 123.471 51.4031 118.698 51.4031C114.672 51.4031 112.73 49.3857 112.73 47.2202C112.73 46.1678 113.228 44.677 114.868 43.6522C116.587 42.5408 118.92 42.3961 120.169 42.3062C119.779 41.7804 119.336 41.2245 119.336 40.3193C119.336 39.8228 119.475 39.53 119.614 39.1774C119.307 39.2071 119.002 39.2363 118.724 39.2363C115.783 39.2363 114.118 36.9257 114.118 34.6456C114.118 33.3 114.701 31.8075 115.893 30.7267C117.476 29.3522 119.363 29.1175 120.864 29.1175H126.58L124.804 30.1703H123.084V30.1699H123.084ZM121.112 43.1562C120.89 43.1256 120.751 43.1256 120.475 43.1256C120.225 43.1256 118.724 43.1854 117.56 43.5958C116.949 43.8279 115.172 44.5298 115.172 46.6075C115.172 48.683 117.088 50.1768 120.059 50.1768C122.722 50.1768 124.139 48.8286 124.139 47.017C124.139 45.5224 123.223 44.736 121.112 43.1562ZM121.918 37.5983C122.555 36.9249 122.61 35.99 122.61 35.4629C122.61 33.3577 121.417 30.0821 119.114 30.0821C118.391 30.0821 117.615 30.4619 117.17 31.0475C116.699 31.6615 116.559 32.4504 116.559 33.2117C116.559 35.171 117.642 38.4178 120.03 38.4178C120.724 38.4178 121.472 38.0668 121.918 37.5983ZM105.609 42.6881C101.203 42.6881 98.8473 39.067 98.8473 35.7961C98.8473 31.9704 101.812 28.7016 106.026 28.7016C110.098 28.7016 112.648 32.0583 112.648 35.5923C112.648 39.0365 110.127 42.6881 105.609 42.6881ZM109.072 40.3231C109.739 39.3878 109.905 38.2204 109.905 37.0806C109.905 34.5103 108.741 29.6055 105.304 29.6055C104.39 29.6055 103.476 29.9858 102.811 30.6002C101.73 31.6208 101.535 32.9062 101.535 34.1632C101.535 37.0518 102.893 41.8101 106.247 41.8101C107.328 41.8101 108.436 41.2563 109.072 40.3231ZM90.588 42.6881C86.1815 42.6881 83.8254 39.067 83.8254 35.7961C83.8254 31.9704 86.7912 28.7016 91.004 28.7016C95.0771 28.7016 97.6265 32.0583 97.6265 35.5923C97.6269 39.0365 95.1057 42.6881 90.588 42.6881ZM94.0525 40.3231C94.7174 39.3878 94.8842 38.2204 94.8842 37.0806C94.8842 34.5103 93.7194 29.6055 90.2827 29.6055C89.3688 29.6055 88.4538 29.9858 87.7892 30.6002C86.7083 31.6208 86.5145 32.9062 86.5145 34.1632C86.5145 37.0518 87.8718 41.8101 91.2264 41.8101C92.3074 41.8101 93.4154 41.2563 94.0525 40.3231ZM81.7085 42.2302L77.7236 43.199C76.107 43.4638 74.6587 43.6968 73.1271 43.6968C65.4361 43.6968 62.5117 37.7371 62.5117 33.0691C62.5117 27.3747 66.6625 22.0918 73.7682 22.0918C75.2733 22.0918 76.7209 22.326 78.0302 22.708C80.1197 23.3246 81.0948 24.0871 81.7081 24.5281L79.3947 26.8472L78.42 27.081L79.1164 25.9064C78.1695 24.9384 76.4405 23.148 73.1541 23.148C68.7516 23.148 65.4353 26.6723 65.4353 31.8092C65.4353 37.3267 69.2252 42.523 75.2979 42.523C77.0829 42.523 78.0004 42.142 78.8369 41.7889V37.0636L74.6305 37.2983L76.8586 36.0346H82.7657L82.042 36.7683C81.8455 36.9453 81.8185 37.0047 81.7629 37.2372C81.7339 37.502 81.7077 38.3541 81.7077 38.6474V42.2302H81.7085V42.2302Z" fill="#F9F9F9"/>
<path d="M131.891 41.385C130.971 41.2968 130.778 41.1215 130.778 39.9753V23.36C130.784 23.2967 130.788 23.2318 130.793 23.1707C130.906 22.1437 131.184 21.9676 132.048 21.4385H128.063L125.973 22.4956H128.103V22.5087L128.101 22.4981V40.622C128.101 41.2081 127.991 41.2972 127.35 42.1769H132.282L133.313 41.5327C132.84 41.472 132.365 41.4436 131.891 41.385ZM143.228 41.6549C142.925 41.8302 142.62 42.0352 142.317 42.1799C141.402 42.617 140.462 42.7341 139.63 42.7341C138.747 42.7341 137.362 42.6738 135.95 41.5964C133.987 40.1374 133.129 37.6304 133.129 35.4444C133.129 30.9263 136.615 28.7107 139.465 28.7107C140.462 28.7107 141.487 28.9725 142.317 29.5276C143.699 30.4879 144.059 31.7415 144.251 32.4124L137.75 35.1831L135.619 35.3579C136.31 39.0604 138.69 41.2162 141.319 41.2162C142.73 41.2162 143.754 40.6925 144.695 40.1977L143.228 41.6549ZM140.628 32.9658C141.153 32.7625 141.429 32.5868 141.429 32.179C141.429 31.0137 140.185 29.6719 138.69 29.6719C137.582 29.6719 135.508 30.5762 135.508 33.7241C135.508 34.2198 135.563 34.7443 135.592 35.2709L140.628 32.9658ZM145.899 28.9102V30.8338H145.677V28.9102H145.073V28.7107H146.503V28.9102H145.899ZM148.388 30.8338V28.8923H148.378L147.816 30.8338H147.642L147.075 28.8923H147.068V30.8338H146.866V28.7107H147.211L147.724 30.4268H147.732L148.237 28.7107H148.587V30.8338H148.388Z" fill="#F9F9F9"/>
<path d="M68.0468 16.3755H66.6622C66.6622 16.1748 66.5309 15.6065 66.2683 14.6704H64.2694C63.9984 15.5913 63.8626 16.1594 63.8626 16.3755H62.5605C62.5605 16.257 62.8972 15.2844 63.5706 13.458C64.244 11.6316 64.5808 10.6254 64.5808 10.4404H66.2163C66.2163 10.6135 66.5212 11.6048 67.1314 13.4147C67.7416 15.2246 68.0468 16.2112 68.0468 16.3755ZM66.0479 13.7996C65.5546 12.2316 65.3081 11.3837 65.3081 11.256H65.2389C65.2389 11.3744 64.9835 12.2222 64.4732 13.7996H66.0479ZM73.6258 16.3755H72.5573C72.5573 16.2507 72.1606 15.593 71.3675 14.4018C70.5371 13.1465 70.0638 12.2885 69.9487 11.8264H69.8794C69.9515 12.4917 69.9878 13.0935 69.9878 13.6316C69.9878 14.3823 70.0079 15.2972 70.0482 16.3759H68.9837C69.0268 15.4339 69.0486 14.3993 69.0486 13.2717C69.0486 12.1625 69.0268 11.2187 68.9837 10.4408H70.2685C70.2685 10.6021 70.6245 11.245 71.337 12.3691C72.0954 13.5633 72.5311 14.3734 72.6435 14.799H72.7084C72.6391 14.1213 72.6045 13.5136 72.6045 12.9755C72.6045 12.1523 72.5843 11.307 72.5441 10.4408H73.6258C73.5851 11.1945 73.5654 12.1383 73.5654 13.2717C73.565 14.4137 73.5851 15.4483 73.6258 16.3755ZM79.8962 13.2026C79.8962 14.0657 79.6337 14.8194 79.1089 15.4636C78.5837 16.1082 77.8482 16.4298 76.9022 16.4298C76.4753 16.4298 75.8868 16.4115 75.1369 16.3751C75.1743 15.4572 75.1933 14.4222 75.1933 13.2709C75.1933 12.165 75.1744 11.2212 75.1369 10.44H75.8941C76.0181 10.44 76.2026 10.4353 76.4479 10.4264C76.6927 10.4175 76.853 10.4128 76.9279 10.4128C77.9691 10.4128 78.7239 10.6865 79.193 11.2335C79.6618 11.7805 79.8962 12.4366 79.8962 13.2026ZM78.7153 13.3986C78.7153 12.8151 78.5538 12.3237 78.2308 11.9235C77.9078 11.5242 77.4144 11.3243 76.7511 11.3243C76.6271 11.3243 76.4571 11.3379 76.2404 11.3655C76.269 11.9736 76.2835 12.6084 76.2835 13.2709C76.2835 13.9974 76.298 14.7175 76.3266 15.4317C76.5117 15.471 76.7 15.4909 76.8888 15.4911C77.5091 15.4911 77.9682 15.2879 78.2667 14.8822C78.5651 14.4765 78.7153 13.9821 78.7153 13.3986ZM85.6786 16.3755H84.3978C84.0631 15.2997 83.8066 14.6356 83.6278 14.3835C83.449 14.131 83.1606 14.005 82.7627 14.005C82.5951 14.005 82.4352 14.0067 82.2826 14.0097C82.2826 14.791 82.2954 15.5794 82.3216 16.3755H81.119C81.1565 15.4576 81.1754 14.4226 81.1754 13.2713C81.1754 12.1654 81.1565 11.2216 81.119 10.4404H81.8673C81.9539 10.4404 82.1348 10.4357 82.4103 10.4268C82.6857 10.4179 82.9403 10.4132 83.1739 10.4132C84.4977 10.4132 85.1598 10.8902 85.1598 11.8446C85.1598 12.6012 84.7821 13.1283 84.0265 13.4266V13.4949C84.3177 13.5798 84.573 13.8196 84.7921 14.2125C85.0108 14.6059 85.3064 15.3269 85.6786 16.3755ZM84.0563 12.1815C84.0563 11.5768 83.687 11.2743 82.9487 11.2743C82.6777 11.2743 82.438 11.2955 82.2306 11.3379C82.2624 11.8089 82.2781 12.423 82.2781 13.1796C82.4368 13.186 82.571 13.1885 82.6805 13.1885C83.5975 13.189 84.0563 12.8533 84.0563 12.1815ZM91.8801 13.2984C91.8801 14.2312 91.6091 15.0048 91.0666 15.6188C90.5241 16.2325 89.8535 16.5397 89.0548 16.5397C88.2933 16.5397 87.6557 16.2579 87.1426 15.6939C86.6291 15.1304 86.3725 14.4137 86.3725 13.545C86.3725 12.6122 86.6436 11.8386 87.1861 11.2246C87.7282 10.6109 88.3988 10.3037 89.1978 10.3037C89.9594 10.3037 90.5966 10.5846 91.1101 11.1469C91.6236 11.7092 91.8801 12.426 91.8801 13.2984ZM90.6864 13.4304C90.6864 12.7952 90.5321 12.28 90.2236 11.8849C89.9147 11.4898 89.5341 11.2925 89.0814 11.2925C88.6601 11.2925 88.3025 11.4915 88.0085 11.8896C87.7145 12.2876 87.5667 12.7905 87.5667 13.3986C87.5667 14.0305 87.7217 14.5448 88.0318 14.9416C88.3419 15.3384 88.7218 15.5366 89.172 15.5366C89.5929 15.5366 89.951 15.3367 90.245 14.9369C90.539 14.5376 90.6864 14.0351 90.6864 13.4304ZM94.3265 16.3755H93.1021C93.1396 15.4334 93.1585 14.3988 93.1585 13.2713C93.1585 12.162 93.1396 11.2182 93.1021 10.4404H94.3265C94.289 11.2064 94.2701 12.1497 94.2701 13.2713C94.2701 14.4166 94.289 15.4516 94.3265 16.3755ZM100.597 13.2026C100.597 14.0657 100.335 14.8194 99.81 15.4636C99.2848 16.1082 98.5493 16.4298 97.6033 16.4298C97.1763 16.4298 96.5879 16.4115 95.838 16.3751C95.8755 15.4572 95.8944 14.4222 95.8944 13.2709C95.8944 12.165 95.8755 11.2212 95.838 10.44H96.5952C96.7192 10.44 96.9037 10.4353 97.149 10.4264C97.3939 10.4175 97.5541 10.4128 97.6291 10.4128C98.6702 10.4128 99.425 10.6865 99.8941 11.2335C100.363 11.7805 100.597 12.4366 100.597 13.2026ZM99.4165 13.3986C99.4165 12.8151 99.255 12.3237 98.9319 11.9235C98.6089 11.5242 98.1156 11.3243 97.4522 11.3243C97.3282 11.3243 97.1582 11.3379 96.9415 11.3655C96.9701 11.9736 96.9846 12.6084 96.9846 13.2709C96.9846 13.9974 96.9991 14.7175 97.0277 15.4317C97.2128 15.471 97.4011 15.4909 97.5899 15.4911C98.2101 15.4911 98.6693 15.2879 98.9677 14.8822C99.2662 14.4765 99.4165 13.9821 99.4165 13.3986ZM108.917 16.3755H107.532C107.532 16.1748 107.401 15.6065 107.138 14.6704H105.139C104.868 15.5913 104.732 16.1594 104.732 16.3755H103.43C103.43 16.257 103.767 15.2844 104.44 13.458C105.114 11.6316 105.451 10.6254 105.451 10.4404H107.086C107.086 10.6135 107.391 11.6048 108.001 13.4147C108.611 15.2246 108.917 16.2112 108.917 16.3755ZM106.918 13.7996C106.424 12.2316 106.177 11.3837 106.177 11.256H106.108C106.108 11.3744 105.853 12.2222 105.343 13.7996H106.918ZM113.963 11.9944C113.963 12.7209 113.707 13.2573 113.195 13.6036C112.683 13.9498 112.055 14.1234 111.311 14.1234C111.175 14.1234 111.079 14.1204 111.021 14.1145C111.021 14.6861 111.037 15.4393 111.068 16.3755H109.853C109.89 15.4975 109.909 14.4624 109.909 13.2713C109.909 12.1773 109.89 11.2335 109.853 10.4404H110.605C110.712 10.4404 110.917 10.4357 111.219 10.4268C111.522 10.4179 111.785 10.4132 112.007 10.4132C112.555 10.4132 113.018 10.5439 113.396 10.8053C113.773 11.0667 113.963 11.4627 113.963 11.9944ZM112.847 12.2452C112.847 11.595 112.437 11.2696 111.618 11.2696C111.413 11.2696 111.197 11.2925 110.969 11.3379C111.001 11.9125 111.017 12.5626 111.017 13.2891C111.089 13.2955 111.173 13.298 111.268 13.298C112.321 13.2984 112.847 12.9475 112.847 12.2452ZM119.152 11.9944C119.152 12.7209 118.896 13.2573 118.385 13.6036C117.873 13.9498 117.244 14.1234 116.5 14.1234C116.364 14.1234 116.268 14.1204 116.21 14.1145C116.21 14.6861 116.226 15.4393 116.258 16.3755H115.042C115.079 15.4975 115.098 14.4624 115.098 13.2713C115.098 12.1773 115.079 11.2335 115.042 10.4404H115.794C115.901 10.4404 116.106 10.4357 116.409 10.4268C116.711 10.4179 116.974 10.4132 117.196 10.4132C117.744 10.4132 118.207 10.5439 118.585 10.8053C118.962 11.0667 119.152 11.4627 119.152 11.9944ZM118.036 12.2452C118.036 11.595 117.627 11.2696 116.807 11.2696C116.602 11.2696 116.386 11.2925 116.159 11.3379C116.19 11.9125 116.206 12.5626 116.206 13.2891C116.278 13.2955 116.362 13.298 116.457 13.298C117.51 13.2984 118.036 12.9475 118.036 12.2452ZM127.636 13.2984C127.636 14.2312 127.365 15.0048 126.823 15.6188C126.28 16.2329 125.609 16.5397 124.811 16.5397C124.049 16.5397 123.412 16.2579 122.899 15.6939C122.385 15.1304 122.129 14.4137 122.129 13.545C122.129 12.6122 122.4 11.8386 122.942 11.2246C123.485 10.6105 124.155 10.3037 124.954 10.3037C125.715 10.3037 126.353 10.5846 126.866 11.1469C127.379 11.7092 127.636 12.426 127.636 13.2984ZM126.442 13.4304C126.442 12.7952 126.288 12.28 125.979 11.8849C125.671 11.4898 125.29 11.2925 124.837 11.2925C124.416 11.2925 124.058 11.4915 123.764 11.8896C123.47 12.2876 123.323 12.7905 123.323 13.3986C123.323 14.0305 123.478 14.5448 123.788 14.9416C124.098 15.3384 124.478 15.5366 124.928 15.5366C125.349 15.5366 125.707 15.3367 126.001 14.9369C126.295 14.5376 126.442 14.0351 126.442 13.4304ZM133.5 16.3755H132.432C132.432 16.2507 132.035 15.593 131.242 14.4018C130.412 13.1465 129.938 12.2885 129.823 11.8264H129.754C129.826 12.4917 129.862 13.0935 129.862 13.6316C129.862 14.3823 129.882 15.2972 129.923 16.3759H128.858C128.901 15.4339 128.923 14.3993 128.923 13.2717C128.923 12.1625 128.901 11.2187 128.858 10.4408H130.143C130.143 10.6021 130.499 11.245 131.211 12.3691C131.97 13.5633 132.406 14.3734 132.518 14.799H132.583C132.514 14.1213 132.479 13.5136 132.479 12.9755C132.479 12.1523 132.459 11.307 132.418 10.4408H133.5C133.46 11.1945 133.44 12.1383 133.44 13.2717C133.44 14.4137 133.46 15.4483 133.5 16.3755Z" fill="#F9F9FA"/>
<defs>
<linearGradient id="paint0_linear" x1="25.5054" y1="8.17488" x2="25.5054" y2="56.2561" gradientUnits="userSpaceOnUse">
<stop stop-color="#257CB0"/>
<stop offset="0.286" stop-color="#4A93B5"/>
<stop offset="0.767" stop-color="#78BCBB"/>
<stop offset="1" stop-color="#89CFBD"/>
</linearGradient>
<linearGradient id="paint1_linear" x1="14.0004" y1="20.1075" x2="43.1915" y2="20.1075" gradientUnits="userSpaceOnUse">
<stop stop-color="#52C1AD"/>
<stop offset="1" stop-color="#DEE89A"/>
</linearGradient>
<linearGradient id="paint2_linear" x1="28.5953" y1="32.2159" x2="28.5953" y2="56.4311" gradientUnits="userSpaceOnUse">
<stop stop-color="#EC413D"/>
<stop offset="0.167" stop-color="#DA4452"/>
<stop offset="0.575" stop-color="#B0487A"/>
<stop offset="0.862" stop-color="#954A92"/>
<stop offset="1" stop-color="#8A4A9D"/>
</linearGradient>
<linearGradient id="paint3_linear" x1="45.8607" y1="26.2525" x2="45.8607" y2="39.1662" gradientUnits="userSpaceOnUse">
<stop stop-color="#F58879"/>
<stop offset="0.119" stop-color="#F69079"/>
<stop offset="0.713" stop-color="#FCB877"/>
<stop offset="1" stop-color="#FEC874"/>
</linearGradient>
</defs>
</svg>
