<svg width="229" height="68" viewBox="0 0 229 68" fill="none" xmlns="http://www.w3.org/2000/svg">
<path d="M227.147 59.9721C227.147 60.828 226.979 61.6754 226.653 62.466C226.326 63.2566 225.847 63.9749 225.244 64.5798C224.64 65.1846 223.924 65.6642 223.136 65.9911C222.347 66.318 221.503 66.4858 220.65 66.4849H8.01388C6.29045 66.4867 4.63687 65.8016 3.4168 64.5803C2.19672 63.3589 1.51006 61.7014 1.50781 59.9721V8.03472C1.51006 6.30468 2.19645 4.64624 3.41628 3.42355C4.63612 2.20087 6.28967 1.51388 8.01388 1.51343H220.648C221.502 1.51343 222.347 1.68212 223.135 2.00986C223.923 2.33761 224.64 2.81799 225.243 3.42357C225.847 4.02915 226.325 4.74807 226.652 5.53926C226.978 6.33045 227.146 7.17841 227.146 8.03472L227.147 59.9721Z" fill="white"/>
<path d="M220.65 68H8.01437C5.89131 67.9995 3.85514 67.154 2.35264 65.649C0.850137 64.144 0.0040396 62.1023 0 59.9721L0 8.03641C0.00314076 5.90511 0.84868 3.86207 2.35113 2.35549C3.85358 0.848905 5.89026 0.0017989 8.01437 0L220.649 0C222.772 0.00269651 224.809 0.850091 226.311 2.35648C227.813 3.86287 228.659 5.90538 228.663 8.03641V59.9721C228.666 64.4001 225.065 68 220.65 68Z" fill="#A6A6A6"/>
<path d="M227.147 59.9721C227.147 60.828 226.979 61.6754 226.653 62.466C226.326 63.2566 225.847 63.9749 225.244 64.5798C224.64 65.1846 223.924 65.6642 223.136 65.9911C222.347 66.318 221.503 66.4858 220.65 66.4849H8.01388C6.29045 66.4867 4.63687 65.8016 3.4168 64.5803C2.19672 63.3589 1.51006 61.7014 1.50781 59.9721V8.03472C1.51006 6.30468 2.19645 4.64624 3.41628 3.42355C4.63612 2.20087 6.28967 1.51388 8.01388 1.51343H220.648C221.502 1.51343 222.347 1.68212 223.135 2.00986C223.923 2.33761 224.64 2.81799 225.243 3.42357C225.847 4.02915 226.325 4.74807 226.652 5.53926C226.978 6.33045 227.146 7.17841 227.146 8.03472L227.147 59.9721Z" fill="black"/>
<path d="M51.0597 33.642C51.0105 28.1614 55.532 25.4951 55.7388 25.3709C53.1781 21.6248 49.209 21.113 47.8143 21.0722C44.4807 20.7202 41.2472 23.0736 39.5491 23.0736C37.8171 23.0736 35.2021 21.1062 32.3838 21.164C28.757 21.2201 25.3642 23.327 23.5034 26.5987C19.6631 33.2696 22.5272 43.0728 26.2065 48.465C28.0469 51.1075 30.1976 54.0544 33.0125 53.9507C35.7664 53.8385 36.7951 52.1907 40.1185 52.1907C43.4114 52.1907 44.3773 53.9507 47.2482 53.8844C50.2038 53.8385 52.0646 51.2317 53.8407 48.567C55.9676 45.5419 56.8217 42.5593 56.8556 42.4062C56.7878 42.3824 51.1173 40.2092 51.0597 33.642ZM45.6365 17.525C47.1177 15.6664 48.1312 13.1378 47.8498 10.5718C45.706 10.667 43.025 12.0597 41.4811 13.8775C40.1151 15.4793 38.8949 18.1048 39.2101 20.5739C41.6183 20.7542 44.0909 19.3547 45.6365 17.525Z" fill="white"/>
<path d="M220.65 0H106.756L151.366 68H220.65C222.774 67.9982 224.81 67.1516 226.312 65.6457C227.814 64.1399 228.66 62.0977 228.664 59.967V8.03641C228.661 5.90524 227.815 3.86247 226.313 2.35598C224.81 0.849498 222.774 0.00224788 220.65 0V0Z" fill="url(#paint0_linear)"/>
<path d="M90.9485 53.5715H87.0998L84.9915 46.9244H77.6635L75.6552 53.5715H71.9082L79.1701 30.9417H83.6544L90.9485 53.5715ZM84.356 44.1356L82.4494 38.2265C82.2477 37.6228 81.8681 36.2012 81.3123 33.9634H81.2445C81.0208 34.9259 80.6632 36.3475 80.1734 38.2265L78.299 44.1356H84.356ZM109.587 45.212C109.587 47.9872 108.836 50.1808 107.333 51.7911C105.987 53.2246 104.315 53.9405 102.32 53.9405C100.166 53.9405 98.6171 53.1702 97.6765 51.6262V60.188H94.0634V42.6171C94.0634 40.8741 94.0176 39.0869 93.9295 37.2538H97.1071L97.3088 39.8402H97.3766C98.5815 37.8915 100.41 36.9171 102.864 36.9171C104.783 36.9171 106.384 37.6772 107.665 39.1992C108.945 40.7245 109.587 42.7276 109.587 45.212ZM105.906 45.3446C105.906 43.7564 105.55 42.447 104.835 41.4149C104.054 40.3419 103.005 39.8045 101.69 39.8045C100.798 39.8045 99.9882 40.1038 99.2645 40.6939C98.5392 41.289 98.0646 42.0661 97.8426 43.0286C97.7435 43.3885 97.6872 43.759 97.6749 44.1322V46.8547C97.6749 48.0399 98.0375 49.0415 98.7629 49.8611C99.4882 50.6773 100.43 51.0871 101.59 51.0871C102.951 51.0871 104.01 50.5583 104.767 49.5091C105.527 48.4565 105.906 47.0689 105.906 45.3446ZM128.292 45.212C128.292 47.9872 127.541 50.1808 126.038 51.7911C124.691 53.2246 123.02 53.9405 121.023 53.9405C118.869 53.9405 117.32 53.1702 116.38 51.6262V60.188H112.766V42.6171C112.766 40.8741 112.721 39.0869 112.633 37.2538H115.81L116.012 39.8402H116.08C117.283 37.8915 119.111 36.9171 121.567 36.9171C123.484 36.9171 125.085 37.6772 126.37 39.1992C127.648 40.7245 128.292 42.7276 128.292 45.212ZM124.609 45.3446C124.609 43.7564 124.252 42.447 123.536 41.4149C122.755 40.3419 121.709 39.8045 120.394 39.8045C119.503 39.8045 118.693 40.1038 117.966 40.6939C117.24 41.289 116.768 42.0661 116.546 43.0286C116.435 43.4775 116.376 43.8431 116.376 44.1322V46.8547C116.376 48.0399 116.741 49.0415 117.462 49.8611C118.188 50.6756 119.13 51.0871 120.293 51.0871C121.655 51.0871 122.714 50.5583 123.47 49.5091C124.23 48.4565 124.609 47.0689 124.609 45.3446ZM149.205 47.2237C149.205 49.1503 148.534 50.7164 147.2 51.9254C145.732 53.245 143.683 53.9065 141.057 53.9065C138.63 53.9065 136.684 53.4372 135.216 52.4968L136.052 49.4751C137.637 50.4171 139.377 50.8865 141.272 50.8865C142.634 50.8865 143.694 50.577 144.449 49.9631C145.207 49.3475 145.59 48.5245 145.59 47.4974C145.59 46.5775 145.273 45.8072 144.651 45.1797C144.026 44.5539 142.992 43.9707 141.54 43.435C137.591 41.9573 135.615 39.796 135.615 36.9528C135.615 35.0959 136.313 33.5757 137.706 32.3871C139.099 31.2002 140.946 30.6067 143.244 30.6067C145.297 30.6067 147.007 30.9655 148.364 31.6814L147.458 34.6368C146.18 33.943 144.737 33.5961 143.124 33.5961C141.85 33.5961 140.85 33.9107 140.135 34.5365C139.533 35.0959 139.228 35.7778 139.228 36.5872C139.228 37.48 139.575 38.2214 140.267 38.8029C140.867 39.3386 141.961 39.9218 143.544 40.5476C145.487 41.3332 146.913 42.2481 147.827 43.299C148.747 44.3499 149.205 45.6609 149.205 47.2237ZM161.181 39.9746H157.199V47.897C157.199 49.9121 157.9 50.9171 159.307 50.9171C159.953 50.9171 160.488 50.8627 160.912 50.7487L161.012 53.5018C160.3 53.7688 159.363 53.9031 158.202 53.9031C156.775 53.9031 155.66 53.4661 154.855 52.592C154.053 51.718 153.65 50.2539 153.65 48.1929V39.9678H151.277V37.247H153.65V34.2593L157.199 33.1846V37.247H161.181V39.9746ZM179.115 45.2783C179.115 47.7865 178.4 49.8458 176.973 51.4561C175.48 53.1141 173.494 53.9405 171.018 53.9405C168.628 53.9405 166.728 53.1464 165.311 51.5598C163.895 49.9699 163.186 47.9668 163.186 45.5504C163.186 43.0218 163.918 40.9506 165.378 39.3403C166.84 37.7282 168.809 36.9222 171.285 36.9222C173.672 36.9222 175.588 37.718 177.039 39.3063C178.425 40.8469 179.115 42.8365 179.115 45.2783ZM175.37 45.3616C175.37 43.8669 175.048 42.5848 174.402 41.5118C173.644 40.216 172.56 39.5682 171.155 39.5682C169.708 39.5682 168.598 40.216 167.842 41.5118C167.194 42.5848 166.872 43.889 166.872 45.4297C166.872 46.9261 167.194 48.2116 167.842 49.2812C168.623 50.577 169.713 51.2249 171.124 51.2249C172.506 51.2249 173.589 50.5634 174.371 49.2489C175.036 48.1504 175.37 46.8598 175.37 45.3616ZM190.865 40.4422C190.489 40.3741 190.108 40.3405 189.726 40.3419C188.455 40.3419 187.472 40.8214 186.78 41.7873C186.18 42.6375 185.879 43.7122 185.879 45.0096V53.5715H182.266V42.3926C182.269 40.6797 182.234 38.9669 182.16 37.2555H185.308L185.44 40.3776H185.54C185.923 39.3046 186.523 38.439 187.346 37.7912C188.1 37.225 189.016 36.9185 189.958 36.9171C190.292 36.9171 190.593 36.9409 190.861 36.9834L190.865 40.4422ZM207.024 44.6406C207.033 45.1918 206.989 45.7425 206.892 46.285H196.052C196.093 47.897 196.618 49.1316 197.625 49.9818C198.538 50.7402 199.72 51.1211 201.17 51.1211C202.775 51.1211 204.239 50.8661 205.556 50.3508L206.122 52.8658C204.583 53.5392 202.767 53.8742 200.67 53.8742C198.149 53.8742 196.169 53.1294 194.729 51.6432C193.291 50.1553 192.571 48.1555 192.571 45.6507C192.571 43.1918 193.241 41.1428 194.581 39.5086C195.984 37.764 197.881 36.8916 200.267 36.8916C202.611 36.8916 204.385 37.764 205.59 39.5086C206.544 40.8911 207.024 42.6052 207.024 44.6406ZM203.578 43.7003C203.604 42.6239 203.367 41.6971 202.877 40.9132C202.251 39.9031 201.289 39.3998 199.999 39.3998C198.818 39.3998 197.855 39.8912 197.123 40.8775C196.522 41.6614 196.164 42.6035 196.054 43.6969L203.578 43.7003Z" fill="white"/>
<path d="M76.6195 22.9409C75.6145 22.9409 74.7451 22.8916 74.0215 22.8083V11.8675C75.0336 11.7106 76.0564 11.6333 77.0805 11.6362C81.2241 11.6362 83.1323 13.6819 83.1323 17.0165C83.1323 20.8629 80.8784 22.9409 76.6195 22.9409ZM77.2262 13.0391C76.667 13.0391 76.1907 13.0731 75.7959 13.1547V21.4717C76.0094 21.5057 76.4195 21.521 76.9957 21.521C79.7107 21.521 81.2563 19.9702 81.2563 17.0658C81.2563 14.476 79.8581 13.0391 77.2262 13.0391ZM89.0791 23.0242C86.7438 23.0242 85.2304 21.2745 85.2304 18.8989C85.2304 16.423 86.776 14.6579 89.2113 14.6579C91.5128 14.6579 93.0601 16.3244 93.0601 18.768C93.0601 21.2745 91.4653 23.0242 89.0791 23.0242ZM89.1469 15.9605C87.864 15.9605 87.0421 17.1644 87.0421 18.8479C87.0421 20.499 87.881 21.703 89.13 21.703C90.379 21.703 91.2179 20.4157 91.2179 18.8139C91.2179 17.1814 90.396 15.9605 89.1469 15.9605ZM106.377 14.8229L103.878 22.8423H102.249L101.213 19.3597C100.956 18.5079 100.742 17.6435 100.571 16.7699H100.537C100.407 17.644 100.159 18.5197 99.8966 19.3597L98.795 22.8423H97.1494L94.7972 14.8229H96.6224L97.5274 18.6353C97.7409 19.5434 97.9205 20.4004 98.0697 21.2098H98.1036C98.2341 20.5347 98.4476 19.6913 98.7611 18.6523L99.8966 14.8246H101.344L102.43 18.5707C102.693 19.4788 102.906 20.3698 103.073 21.2115H103.12C103.235 20.3868 103.417 19.5111 103.662 18.5707L104.633 14.8246L106.377 14.8229ZM115.58 22.8423H113.804V18.2374C113.804 16.8192 113.261 16.1084 112.192 16.1084C111.139 16.1084 110.416 17.0165 110.416 18.0725V22.8423H108.64V17.1151C108.64 16.406 108.623 15.6459 108.574 14.8212H110.136L110.219 16.0591H110.268C110.746 15.2021 111.716 14.6579 112.802 14.6579C114.48 14.6579 115.581 15.9452 115.581 18.0402L115.58 22.8423ZM120.477 22.8423H118.7V11.1431H120.477V22.8423ZM126.953 23.0242C124.619 23.0242 123.104 21.2745 123.104 18.8989C123.104 16.423 124.65 14.6579 127.083 14.6579C129.387 14.6579 130.932 16.3244 130.932 18.768C130.934 21.2745 129.337 23.0242 126.953 23.0242ZM127.019 15.9605C125.736 15.9605 124.914 17.1644 124.914 18.8479C124.914 20.499 125.755 21.703 127 21.703C128.251 21.703 129.088 20.4157 129.088 18.8139C129.09 17.1814 128.27 15.9605 127.019 15.9605ZM137.935 22.8423L137.806 21.9189H137.759C137.216 22.662 136.425 23.0242 135.421 23.0242C133.989 23.0242 132.973 22.0176 132.973 20.664C132.973 18.6846 134.683 17.661 137.643 17.661V17.513C137.643 16.457 137.086 15.9282 135.984 15.9282C135.196 15.9282 134.505 16.1271 133.896 16.5233L133.535 15.3517C134.274 14.8892 135.196 14.6579 136.279 14.6579C138.367 14.6579 139.421 15.7632 139.421 17.9755V20.9293C139.421 21.7387 139.457 22.3662 139.536 22.844L137.935 22.8423ZM137.691 18.8479C135.718 18.8479 134.728 19.3274 134.728 20.465C134.728 21.3068 135.238 21.7183 135.947 21.7183C136.85 21.7183 137.691 21.0262 137.691 20.0858V18.8479ZM148.046 22.8423L147.962 21.555H147.913C147.403 22.5277 146.546 23.0242 145.348 23.0242C143.421 23.0242 141.994 21.3238 141.994 18.9312C141.994 16.423 143.473 14.6562 145.493 14.6562C146.563 14.6562 147.32 15.0184 147.747 15.7462H147.783V11.1431H149.561V20.681C149.561 21.4564 149.579 22.1825 149.627 22.8423H148.046ZM147.783 18.1235C147.783 17.0012 147.042 16.0438 145.912 16.0438C144.595 16.0438 143.79 17.2154 143.79 18.8649C143.79 20.482 144.626 21.589 145.876 21.589C146.993 21.589 147.783 20.6147 147.783 19.4601V18.1235ZM160.832 23.0242C158.499 23.0242 156.985 21.2745 156.985 18.8989C156.985 16.423 158.531 14.6579 160.964 14.6579C163.268 14.6579 164.813 16.3244 164.813 18.768C164.815 21.2745 163.22 23.0242 160.832 23.0242ZM160.898 15.9605C159.617 15.9605 158.795 17.1644 158.795 18.8479C158.795 20.499 159.634 21.703 160.881 21.703C162.132 21.703 162.969 20.4157 162.969 18.8139C162.973 17.1814 162.151 15.9605 160.898 15.9605ZM174.365 22.8423H172.587V18.2374C172.587 16.8192 172.045 16.1084 170.975 16.1084C169.923 16.1084 169.201 17.0165 169.201 18.0725V22.8423H167.423V17.1151C167.423 16.406 167.406 15.6459 167.357 14.8212H168.92L169.003 16.0591H169.052C169.528 15.2021 170.499 14.6562 171.584 14.6562C173.261 14.6562 174.365 15.9435 174.365 18.0385V22.8423ZM186.314 16.1594H184.36V20.0535C184.36 21.0449 184.703 21.5397 185.394 21.5397C185.707 21.5397 185.97 21.5057 186.182 21.4564L186.231 22.81C185.887 22.9426 185.426 23.0089 184.853 23.0089C183.453 23.0089 182.616 22.2335 182.616 20.2032V16.1594H181.45V14.8229H182.616V13.3537L184.36 12.8248V14.8212H186.314V16.1594ZM195.717 22.8423H193.942V18.2714C193.942 16.8362 193.402 16.1101 192.33 16.1101C191.41 16.1101 190.553 16.7376 190.553 18.0079V22.8423H188.778V11.1431H190.553V15.9605H190.588C191.148 15.0864 191.958 14.6562 192.991 14.6562C194.683 14.6562 195.717 15.9758 195.717 18.0725V22.8423ZM205.349 19.2611H200.019C200.053 20.7796 201.055 21.6367 202.538 21.6367C203.326 21.6367 204.051 21.504 204.692 21.2574L204.968 22.4954C204.212 22.8253 203.322 22.9902 202.287 22.9902C199.787 22.9902 198.308 21.4054 198.308 18.9482C198.308 16.4893 199.823 14.6409 202.087 14.6409C204.129 14.6409 205.41 16.1594 205.41 18.4534C205.422 18.7241 205.401 18.9952 205.349 19.2611ZM203.721 17.9908C203.721 16.7529 203.099 15.8789 201.963 15.8789C200.943 15.8789 200.136 16.7699 200.021 17.9908H203.721Z" fill="white"/>
<defs>
<linearGradient id="paint0_linear" x1="167.708" y1="68.1805" x2="167.708" y2="-177.06" gradientUnits="userSpaceOnUse">
<stop stop-color="#1A1A1A" stop-opacity="0.1"/>
<stop offset="0.123" stop-color="#212121" stop-opacity="0.151"/>
<stop offset="0.308" stop-color="#353535" stop-opacity="0.227"/>
<stop offset="0.532" stop-color="#575757" stop-opacity="0.318"/>
<stop offset="0.783" stop-color="#858585" stop-opacity="0.421"/>
<stop offset="1" stop-color="#B3B3B3" stop-opacity="0.51"/>
</linearGradient>
</defs>
</svg>
