<svg width="84" height="101" viewBox="0 0 84 101" fill="none" xmlns="http://www.w3.org/2000/svg">
<path d="M80.7186 67.8694V44.1775C82.5509 44.0742 83.9991 42.7951 83.9991 41.2285C83.9991 39.6619 82.5509 38.3828 80.7186 38.2795V28.998C80.7186 24.1034 75.9817 20.1211 70.1595 20.1211H65.2319V5.91797H67.5784C69.5215 5.91797 71.0981 4.59336 71.0981 2.95898C71.0981 1.32461 69.5215 0 67.5784 0H16.4235C14.4794 0 12.9038 1.32461 12.9038 2.95898C12.9038 4.59336 14.4794 5.91797 16.4235 5.91797H18.7718V20.1211H13.8405C8.01833 20.1211 3.28139 24.1034 3.28139 28.998V38.2795C1.44913 38.3828 0 39.6619 0 41.2285C0 42.7951 1.44913 44.0742 3.28139 44.1775V67.8694C1.44913 67.9734 0 69.2518 0 70.8184C0 72.3849 1.44913 73.6641 3.28139 73.7673V80.2871C3.28139 83.9196 5.89093 87.0481 9.61595 88.4205V92.123C9.61595 97.0177 14.8946 101 21.3831 101H62.6169C69.1045 101 74.3831 97.0177 74.3831 92.123V88.4205C78.1091 87.0481 80.7186 83.9196 80.7186 80.2871V73.7673C82.5509 73.6641 84 72.3849 84 70.8184C84 69.2518 82.5509 67.9726 80.7186 67.8694V67.8694ZM25.8112 5.91797H58.1925V20.1211H45.5206V16.9648H45.7553C47.6984 16.9648 49.275 15.6402 49.275 14.0059C49.275 12.3715 47.6984 11.0469 45.7553 11.0469H38.2466C36.3025 11.0469 34.7269 12.3715 34.7269 14.0059C34.7269 15.6402 36.3025 16.9648 38.2466 16.9648H38.4812V20.1211H25.8112V5.91797ZM10.3208 28.998C10.3208 27.3668 11.8992 26.0391 13.8405 26.0391H70.1595C72.0999 26.0391 73.6792 27.3668 73.6792 28.998V80.2871C73.6792 81.9176 72.1027 83.2438 70.1641 83.2461H13.8359C11.8973 83.2438 10.3208 81.9176 10.3208 80.2871V28.998ZM62.6169 95.082H21.3831C18.8203 95.082 16.6554 93.7274 16.6554 92.123V89.1641H67.3437V92.123C67.3437 93.7274 65.1787 95.082 62.6169 95.082Z" fill="#198CC1"/>
</svg>
