<svg width="76" height="110" viewBox="0 0 76 110" fill="none" xmlns="http://www.w3.org/2000/svg">
<path d="M74.2812 88.6783V73.4311C75.2409 73.3646 75.9995 72.5414 75.9995 71.5332C75.9995 70.525 75.2409 69.7018 74.2812 69.6354V63.6621C74.2812 60.5121 71.7999 57.9492 68.7502 57.9492H66.1691V48.8086H67.3982C68.416 48.8086 69.2418 47.9561 69.2418 46.9043C69.2418 45.8525 68.416 45 67.3982 45H40.6028C39.5844 45 38.7591 45.8525 38.7591 46.9043C38.7591 47.9561 39.5844 48.8086 40.6028 48.8086H41.8328V57.9492H39.2498C36.2001 57.9492 33.7188 60.5121 33.7188 63.6621V69.6354C32.7591 69.7018 32 70.525 32 71.5332C32 72.5414 32.7591 73.3646 33.7188 73.4311V88.6783C32.7591 88.7453 32 89.568 32 90.5762C32 91.5844 32.7591 92.4076 33.7188 92.474V96.6699C33.7188 99.0076 35.0857 101.021 37.0369 101.904V104.287C37.0369 107.437 39.8019 110 43.2007 110H64.7993C68.1976 110 70.9626 107.437 70.9626 104.287V101.904C72.9143 101.021 74.2812 99.0076 74.2812 96.6699V92.474C75.2409 92.4076 76 91.5844 76 90.5762C76 89.568 75.2409 88.7448 74.2812 88.6783V88.6783ZM45.5201 48.8086H62.4818V57.9492H55.8441V55.918H55.967C56.9849 55.918 57.8107 55.0655 57.8107 54.0137C57.8107 52.9618 56.9849 52.1094 55.967 52.1094H52.0339C51.0156 52.1094 50.1903 52.9618 50.1903 54.0137C50.1903 55.0655 51.0156 55.918 52.0339 55.918H52.1568V57.9492H45.5201V48.8086ZM37.4061 63.6621C37.4061 62.6123 38.2329 61.7578 39.2498 61.7578H68.7502C69.7666 61.7578 70.5939 62.6123 70.5939 63.6621V96.6699C70.5939 97.7193 69.7681 98.5727 68.7526 98.5742H39.2474C38.2319 98.5727 37.4061 97.7193 37.4061 96.6699V63.6621ZM64.7993 106.191H43.2007C41.8583 106.191 40.7242 105.32 40.7242 104.287V102.383H67.2753V104.287C67.2753 105.32 66.1412 106.191 64.7993 106.191Z" fill="#198CC1"/>
<path d="M22.1272 18.5955C27.4717 18.5955 31.8043 14.4327 31.8043 9.29773C31.8043 4.16274 27.4717 0 22.1272 0C16.7828 0 12.4502 4.16274 12.4502 9.29773C12.4502 14.4327 16.7828 18.5955 22.1272 18.5955Z" fill="#198CC1"/>
<path d="M46.8129 53.0066C47.455 50.6067 45.9508 48.1619 43.453 47.545L27.8103 43.6819L22.7157 29.6185L30.5826 39.92L32.5511 40.4063V28.2328C32.5511 24.7642 29.9368 21.9519 26.7114 21.9519H16.2973C13.0723 21.9519 10.4576 24.7638 10.4576 28.2328V63.6239L9.75908 79.6659L0.42382 101.436C-0.754667 104.185 0.608717 107.332 3.46996 108.465C6.32858 109.597 9.60519 108.288 10.7848 105.538L20.4966 82.8901C20.7453 82.3098 20.8869 81.6918 20.9142 81.0645L21.5869 65.6222C21.6164 64.9421 22.1987 64.4056 22.9073 64.4056C23.4617 64.4056 23.9573 64.7379 24.1482 65.2382L29.3743 78.928L24.2068 102.372C23.5659 105.281 25.5004 108.138 28.5275 108.754C31.5557 109.369 34.5282 107.51 35.1696 104.603L40.6709 79.6433C40.8891 78.6535 40.8125 77.6242 40.4498 76.6746L33.6385 58.832C31.7409 58.3633 33.0378 58.6838 21.9451 55.9444C18.97 55.2098 16.5906 53.1067 15.5805 50.3192C15.3478 49.6764 14.1903 33.3789 14.1903 33.3789L19.8138 48.903C20.3281 50.3221 21.5466 51.3994 23.0612 51.7734L41.1285 56.2351C43.6151 56.8492 46.1685 55.4158 46.8129 53.0066V53.0066Z" fill="#198CC1"/>
</svg>
