<svg width="165" height="46" viewBox="0 0 165 46" fill="none" xmlns="http://www.w3.org/2000/svg">
<path d="M20.7412 41.9457C20.5216 41.9545 20.3114 42.0337 20.1445 42.1704C19.9776 42.3071 19.8636 42.4934 19.8209 42.6995C19.803 42.7827 19.8046 42.8686 19.8258 42.9511C19.847 43.0336 19.8872 43.1105 19.9434 43.1763C20.0827 43.2941 20.2623 43.3592 20.4484 43.3592C20.6344 43.3592 20.814 43.2941 20.9533 43.1763C21.1494 43.0383 21.2829 42.8341 21.3268 42.6053C21.3476 42.5058 21.3402 42.4029 21.3056 42.3071C21.2709 42.2112 21.2102 42.1259 21.1296 42.0599C21.0174 41.9809 20.8805 41.9407 20.7412 41.9457Z" fill="#DCF5FF"/>
<path d="M12.1406 43.2903H14.1992L14.4114 42.0283H12.3557L12.1406 43.2903Z" fill="#DCF5FF"/>
<path d="M32.5479 10.0964C32.7137 10.0119 32.8575 9.89278 32.9686 9.74799C33.0798 9.60319 33.1556 9.43638 33.1902 9.25987L34.5945 0.979923C34.6209 0.858915 34.6182 0.733745 34.5864 0.613915C34.5546 0.494084 34.4947 0.382742 34.4112 0.288345C34.3277 0.193947 34.2228 0.118977 34.1044 0.0691195C33.986 0.0192625 33.8573 -0.00416745 33.7281 0.000607322H20.8804C20.5943 0.00954317 20.32 0.111451 20.1027 0.289504C19.8854 0.467556 19.7382 0.711103 19.6853 0.979923L18.281 9.25987C18.249 9.41583 18.265 9.57731 18.3271 9.72476C18.3891 9.87221 18.4945 9.99933 18.6306 10.0907C15.8141 10.3603 13.2092 11.6397 11.3403 13.6711H21.7648C22.0711 13.6711 22.3648 13.7873 22.5814 13.9943C22.7979 14.2012 22.9196 14.4819 22.9196 14.7746C22.9196 15.0673 22.7979 15.348 22.5814 15.5549C22.3648 15.7619 22.0711 15.8781 21.7648 15.8781H16.8558C16.8002 15.864 16.743 15.8563 16.6855 15.8553H7.51288C7.32151 15.8553 7.13798 15.9279 7.00266 16.0572C6.86734 16.1865 6.79132 16.3619 6.79132 16.5448C6.79132 16.7277 6.86734 16.9031 7.00266 17.0324C7.13798 17.1617 7.32151 17.2343 7.51288 17.2343H9.12929C9.05161 17.4513 8.97692 17.6712 8.91417 17.8939H16.3389C16.6452 17.8939 16.9389 18.0101 17.1555 18.2171C17.372 18.424 17.4937 18.7047 17.4937 18.9974C17.4937 19.2901 17.372 19.5707 17.1555 19.7777C16.9389 19.9846 16.6452 20.1009 16.3389 20.1009H13.868C13.8142 20.0882 13.7591 20.0815 13.7037 20.0809H4.53103C4.33966 20.0809 4.15613 20.1536 4.02082 20.2829C3.8855 20.4122 3.80948 20.5876 3.80948 20.7704C3.80948 20.9533 3.8855 21.1287 4.02082 21.258C4.15613 21.3873 4.33966 21.46 4.53103 21.46H8.25984L8.14929 22.1166H20.6981C21.0044 22.1166 21.2981 22.2329 21.5147 22.4399C21.7313 22.6468 21.8529 22.9275 21.8529 23.2202C21.8529 23.5128 21.7313 23.7935 21.5147 24.0005C21.2981 24.2074 21.0044 24.3237 20.6981 24.3237H10.0645C10.0135 24.3126 9.9614 24.3068 9.90912 24.3065H0.721557C0.530188 24.3065 0.346658 24.3792 0.21134 24.5085C0.076021 24.6378 0 24.8132 0 24.9961C0 25.1789 0.076021 25.3543 0.21134 25.4836C0.346658 25.6129 0.530188 25.6856 0.721557 25.6856H7.5338L7.42324 26.3394H10.7099C11.0161 26.3394 11.3098 26.4557 11.5264 26.6626C11.743 26.8696 11.8646 27.1503 11.8646 27.4429C11.8646 27.7356 11.743 28.0163 11.5264 28.2232C11.3098 28.4302 11.0161 28.5464 10.7099 28.5464H7.04678L5.57677 37.2118C4.75512 42.0656 8.22398 46 13.3272 46H25.5773C30.6805 46 35.4849 42.0656 36.3065 37.2118L39.4199 18.8446C40.2116 14.2707 37.173 10.5161 32.5479 10.0964ZM15.0093 41.9685L14.7613 43.4361C14.7417 43.5486 14.6812 43.6509 14.5905 43.725C14.4998 43.7991 14.3847 43.8404 14.2654 43.8415H11.9857C11.9208 43.8425 11.8566 43.8297 11.7975 43.8042C11.7384 43.7786 11.686 43.7408 11.644 43.6936C11.602 43.6464 11.5715 43.5909 11.5546 43.531C11.5378 43.4712 11.535 43.4086 11.5464 43.3476L11.7944 41.88C11.8141 41.7675 11.8746 41.6652 11.9653 41.5911C12.056 41.517 12.1711 41.4757 12.2904 41.4746H14.5671C14.632 41.4736 14.6962 41.4864 14.7553 41.5119C14.8144 41.5375 14.8668 41.5752 14.9088 41.6225C14.9508 41.6697 14.9813 41.7252 14.9982 41.785C15.015 41.8449 15.0178 41.9075 15.0063 41.9685H15.0093ZM21.9022 42.6994C21.8326 43.0673 21.6189 43.3961 21.3047 43.6188C21.0461 43.8041 20.7316 43.9043 20.4083 43.9043C20.2387 43.9071 20.0706 43.8743 19.9157 43.8082C19.7608 43.7421 19.623 43.6443 19.512 43.5217C19.4014 43.3953 19.3213 43.2471 19.2774 43.0877C19.2335 42.9283 19.2269 42.7616 19.258 42.5995C19.3204 42.2622 19.5035 41.9562 19.776 41.7338C20.0486 41.5113 20.3936 41.3864 20.7519 41.3804C21.0221 41.3773 21.2854 41.4619 21.4989 41.6202C21.6629 41.7483 21.7872 41.9168 21.8583 42.1076C21.9294 42.2983 21.9446 42.5039 21.9022 42.7023V42.6994ZM24.0535 18.4735H21.3644C21.0582 18.4735 20.7644 18.3572 20.5479 18.1502C20.3313 17.9433 20.2096 17.6626 20.2096 17.3699C20.2096 17.0773 20.3313 16.7966 20.5479 16.5896C20.7644 16.3827 21.0582 16.2664 21.3644 16.2664H24.0535C24.3597 16.2664 24.6535 16.3827 24.87 16.5896C25.0866 16.7966 25.2083 17.0773 25.2083 17.3699C25.2083 17.6626 25.0866 17.9433 24.87 18.1502C24.6535 18.3572 24.3597 18.4735 24.0535 18.4735ZM28.338 42.1341L28.1438 43.2762C28.13 43.3574 28.0974 43.4347 28.0484 43.5024C27.9994 43.5701 27.9352 43.6266 27.8605 43.6676C27.7858 43.7086 27.7025 43.7332 27.6166 43.7396C27.5307 43.7459 27.4444 43.734 27.364 43.7045L25.9328 43.182C25.8242 43.1418 25.7311 43.0707 25.6661 42.9783C25.6012 42.8859 25.5676 42.7766 25.5699 42.6653C25.5722 42.554 25.6102 42.4461 25.6789 42.3562C25.7476 42.2663 25.8435 42.1987 25.9537 42.1627L27.6807 41.5917C27.7627 41.5649 27.8506 41.559 27.9358 41.5744C28.0209 41.5897 28.1005 41.6259 28.1666 41.6794C28.2328 41.7329 28.2834 41.8018 28.3134 41.8795C28.3435 41.9572 28.3519 42.041 28.338 42.1227V42.1341Z" fill="#DCF5FF"/>
<path d="M27.5709 43.1904L27.7472 42.1626L26.1367 42.6851L27.5709 43.1904Z" fill="#DCF5FF"/>
<path d="M66.1445 39.3432C65.3713 39.8311 64.0584 40.3121 62.2058 40.786C60.3677 41.26 58.6318 41.497 56.9979 41.497C53.4823 41.497 50.5574 40.4096 48.2233 38.235C45.9039 36.0464 44.7441 33.3629 44.7441 30.1846C44.7441 27.0899 45.8747 24.4552 48.1358 22.2805C50.3969 20.1059 53.1759 19.0186 56.4728 19.0186C58.2379 19.0186 59.8863 19.2834 61.418 19.8132C62.4975 20.1895 63.4895 20.6844 64.394 21.2978C64.7441 21.5766 65.0942 21.8554 65.4443 22.1342L61.987 26.1698C61.4326 25.5565 60.6814 25.0546 59.7331 24.6643C58.6974 24.2322 57.5814 24.0161 56.3852 24.0161C54.8389 24.0161 53.4823 24.6364 52.3152 25.8771C51.1482 27.1178 50.5647 28.5257 50.5647 30.1009C50.5647 31.9132 51.1774 33.4187 52.4028 34.6175C53.6427 35.8024 55.2255 36.3949 57.1511 36.3949C57.6763 36.3949 58.3181 36.3113 59.0767 36.144C59.8353 35.9767 60.2583 35.8652 60.3458 35.8094V32.6729H54.5909L56.2539 28.2399H66.1445V39.3432Z" fill="#DCF5FF"/>
<path d="M93.4833 40.9324L87.7284 42.1034L85.3214 37.2522H76.8532L74.7088 42.1452L68.932 40.9324L81.2295 17.9521L93.4833 40.9324ZM83.3521 32.7147L81.0764 27.9263L78.8444 32.7147H83.3521Z" fill="#DCF5FF"/>
<path d="M112.078 34.5339C112.078 36.5831 111.327 38.2629 109.824 39.5732C108.336 40.8697 106.382 41.5179 103.96 41.5179C102.428 41.5179 100.889 41.2182 99.343 40.6187C97.68 39.9775 96.4765 39.3014 95.7325 38.5905L99.2117 34.5966C99.6493 35.0148 100.021 35.3215 100.328 35.5167C101.29 36.144 102.268 36.4576 103.26 36.4576C103.449 36.4576 103.595 36.4507 103.697 36.4367C104.514 36.367 105.091 36.2416 105.426 36.0603C105.966 35.7676 106.236 35.2797 106.236 34.5966C106.236 33.816 105.185 33.1469 103.085 32.5892C101.772 32.2407 100.918 31.9619 100.525 31.7528C99.4305 31.1674 98.599 30.5331 98.0301 29.85C97.111 28.7488 96.6515 27.3617 96.6515 25.6889C96.6515 23.807 97.3882 22.2178 98.8616 20.9214C100.35 19.611 102.1 18.9558 104.113 18.9558C105.864 18.9558 107.468 19.2486 108.927 19.8341C110.386 20.4056 111.349 21.0329 111.816 21.716L108.533 25.5425C108.431 25.1801 107.964 24.7898 107.133 24.3716C106.404 24.0091 105.608 23.8279 104.748 23.8279C104.164 23.8279 103.646 23.9394 103.194 24.1625C102.742 24.3855 102.516 24.6922 102.516 25.0825C102.516 26.0304 103.194 26.7344 104.551 27.1944C105.514 27.4872 106.221 27.6963 106.673 27.8217C108.628 28.4072 110.036 29.2715 110.897 30.4146C111.684 31.474 112.078 32.8471 112.078 34.5339Z" fill="#DCF5FF"/>
<path d="M122.305 40.9324L116.638 41.3297L116.616 19.5622L122.305 18.9767V40.9324Z" fill="#DCF5FF"/>
<path d="M140.329 24.267H132.167V28.8254H138.206V33.6348H132.167V40.9324L126.39 41.4551V19.5622H138.95L140.329 24.267Z" fill="#DCF5FF"/>
<path d="M164.001 20.7332L152.732 42.5843L146.605 41.4761L150.763 33.9693L142.098 20.775L147.918 18.7049L153.892 28.3236L158.356 18.914L164.001 20.7332Z" fill="#DCF5FF"/>
</svg>
