<svg width="119" height="45" viewBox="0 0 119 45" fill="none" xmlns="http://www.w3.org/2000/svg">
<path d="M117.878 39.6871C117.878 40.2535 117.791 40.8143 117.621 41.3375C117.452 41.8607 117.203 42.336 116.89 42.7363C116.577 43.1366 116.205 43.4539 115.796 43.6703C115.387 43.8866 114.949 43.9976 114.506 43.997H4.1595C3.26514 43.9982 2.40702 43.5449 1.77387 42.7366C1.14071 41.9284 0.784369 40.8315 0.783203 39.6871V5.31678C0.784368 4.1719 1.14057 3.07441 1.7736 2.26528C2.40663 1.45614 3.26473 1.00152 4.1595 1.00122H114.505C114.948 1.00122 115.387 1.11285 115.796 1.32975C116.205 1.54664 116.577 1.86454 116.89 2.26529C117.203 2.66604 117.451 3.14179 117.621 3.66537C117.79 4.18896 117.877 4.75011 117.877 5.31678L117.878 39.6871Z" fill="white"/>
<path d="M114.506 45H4.15903C3.05728 44.9997 2.00061 44.4402 1.22089 43.4442C0.441176 42.4482 0.00209634 41.0971 0 39.6874L0 5.31821C0.00162989 3.90779 0.44042 2.55578 1.22011 1.55878C1.9998 0.561775 3.05673 0.00119045 4.15903 0L114.505 0C115.607 0.00178446 116.664 0.56256 117.443 1.55944C118.223 2.55631 118.662 3.90797 118.664 5.31821V39.6874C118.666 42.6177 116.797 45 114.506 45V45Z" fill="#A6A6A6"/>
<path d="M117.878 39.6871C117.878 40.2535 117.791 40.8143 117.621 41.3375C117.452 41.8607 117.203 42.336 116.89 42.7363C116.577 43.1366 116.205 43.4539 115.796 43.6703C115.387 43.8866 114.949 43.9976 114.506 43.997H4.1595C3.26514 43.9982 2.40702 43.5449 1.77387 42.7366C1.14071 41.9284 0.784369 40.8315 0.783203 39.6871V5.31678C0.784368 4.1719 1.14057 3.07441 1.7736 2.26528C2.40663 1.45614 3.26473 1.00152 4.1595 1.00122H114.505C114.948 1.00122 115.387 1.11285 115.796 1.32975C116.205 1.54664 116.577 1.86454 116.89 2.26529C117.203 2.66604 117.451 3.14179 117.621 3.66537C117.79 4.18896 117.877 4.75011 117.877 5.31678L117.878 39.6871Z" fill="black"/>
<path d="M26.4976 22.2632C26.4721 18.6363 28.8186 16.8718 28.9258 16.7897C27.597 14.3106 25.5372 13.9719 24.8134 13.9449C23.0835 13.7119 21.4055 15.2694 20.5242 15.2694C19.6254 15.2694 18.2684 13.9674 16.8058 14.0056C14.9237 14.0428 13.163 15.437 12.1974 17.6021C10.2045 22.0167 11.6908 28.5041 13.6001 32.0725C14.5552 33.8212 15.6713 35.7714 17.1321 35.7027C18.5612 35.6285 19.0951 34.538 20.8197 34.538C22.5286 34.538 23.0299 35.7027 24.5197 35.6589C26.0535 35.6285 27.0191 33.9034 27.9408 32.14C29.0446 30.1381 29.4878 28.1643 29.5054 28.063C29.4702 28.0473 26.5275 26.6091 26.4976 22.2632V22.2632ZM23.6833 11.5975C24.452 10.3675 24.9779 8.69419 24.8319 6.99609C23.7194 7.05911 22.328 7.98074 21.5268 9.1837C20.818 10.2437 20.1848 11.9812 20.3483 13.6152C21.5981 13.7344 22.8812 12.8083 23.6833 11.5975V11.5975Z" fill="white"/>
<path d="M114.505 0H55.4004L78.5508 45H114.505C115.607 44.9988 116.664 44.4385 117.444 43.442C118.223 42.4455 118.662 41.0941 118.664 39.684V5.31821C118.663 3.90788 118.224 2.55605 117.444 1.55911C116.664 0.562168 115.608 0.00148757 114.505 0V0Z" fill="url(#paint0_linear)"/>
<path d="M47.1963 35.4515H45.199L44.105 31.0526H40.3021L39.2599 35.4515H37.3154L41.084 20.4758H43.4111L47.1963 35.4515V35.4515ZM43.7752 29.2071L42.7858 25.2967C42.6811 24.8972 42.4841 23.9564 42.1956 22.4755H42.1605C42.0444 23.1124 41.8588 24.0532 41.6046 25.2967L40.6319 29.2071H43.7752ZM56.8688 29.9194C56.8688 31.7559 56.4792 33.2076 55.6991 34.2733C55.0008 35.2219 54.1327 35.6956 53.0976 35.6956C51.9798 35.6956 51.1759 35.1859 50.6878 34.1641V39.83H48.8128V28.2022C48.8128 27.0488 48.789 25.8661 48.7433 24.653H50.3923L50.497 26.3646H50.5322C51.1575 25.075 52.1064 24.4302 53.3799 24.4302C54.3755 24.4302 55.2066 24.9332 55.8714 25.9403C56.5355 26.9497 56.8688 28.2754 56.8688 29.9194ZM54.9586 30.0072C54.9586 28.9562 54.7739 28.0897 54.4027 27.4066C53.9973 26.6965 53.4529 26.3409 52.7704 26.3409C52.3078 26.3409 51.8874 26.539 51.5119 26.9295C51.1355 27.3233 50.8892 27.8376 50.774 28.4745C50.7226 28.7127 50.6934 28.9579 50.6869 29.2049V31.0065C50.6869 31.7908 50.8752 32.4536 51.2516 32.996C51.628 33.5362 52.117 33.8074 52.7185 33.8074C53.4248 33.8074 53.9744 33.4574 54.3675 32.7631C54.7616 32.0665 54.9586 31.1483 54.9586 30.0072V30.0072ZM66.5755 29.9194C66.5755 31.7559 66.1859 33.2076 65.4058 34.2733C64.7066 35.2219 63.8395 35.6956 62.8035 35.6956C61.6857 35.6956 60.8818 35.1859 60.3937 34.1641V39.83H58.5187V28.2022C58.5187 27.0488 58.4949 25.8661 58.4492 24.653H60.0982L60.2029 26.3646H60.238C60.8625 25.075 61.8114 24.4302 63.0858 24.4302C64.0805 24.4302 64.9116 24.9332 65.5782 25.9403C66.2413 26.9497 66.5755 28.2754 66.5755 29.9194V29.9194ZM64.6644 30.0072C64.6644 28.9562 64.4789 28.0897 64.1077 27.4066C63.7023 26.6965 63.1597 26.3409 62.4772 26.3409C62.0146 26.3409 61.5942 26.539 61.2169 26.9295C60.8405 27.3233 60.5951 27.8376 60.4799 28.4745C60.4227 28.7716 60.3919 29.0136 60.3919 29.2049V31.0065C60.3919 31.7908 60.581 32.4536 60.9557 32.996C61.3321 33.5351 61.8211 33.8074 62.4244 33.8074C63.1315 33.8074 63.6812 33.4574 64.0734 32.7631C64.4674 32.0665 64.6644 31.1483 64.6644 30.0072V30.0072ZM77.4282 31.2507C77.4282 32.5256 77.08 33.5621 76.3878 34.3622C75.6262 35.2354 74.5629 35.6731 73.1997 35.6731C71.9403 35.6731 70.9307 35.3626 70.1691 34.7403L70.6026 32.7406C71.4249 33.364 72.3282 33.6746 73.3114 33.6746C74.0185 33.6746 74.5682 33.4698 74.9604 33.0635C75.3536 32.6562 75.5523 32.1115 75.5523 31.4318C75.5523 30.8231 75.3879 30.3133 75.0651 29.8981C74.7406 29.4839 74.2041 29.098 73.4504 28.7435C71.4012 27.7656 70.3757 26.3353 70.3757 24.4538C70.3757 23.225 70.7381 22.2189 71.461 21.4323C72.1839 20.6469 73.1426 20.2542 74.3351 20.2542C75.4002 20.2542 76.2876 20.4916 76.992 20.9653L76.5215 22.9211C75.8584 22.462 75.1099 22.2324 74.2727 22.2324C73.6113 22.2324 73.0924 22.4406 72.7213 22.8547C72.4091 23.225 72.2508 23.6762 72.2508 24.2119C72.2508 24.8027 72.4311 25.2933 72.7899 25.6781C73.1012 26.0326 73.6694 26.4186 74.4908 26.8327C75.4987 27.3526 76.2392 27.958 76.7132 28.6535C77.1908 29.3489 77.4282 30.2165 77.4282 31.2507ZM83.6435 26.4535H81.5767V31.6963C81.5767 33.0298 81.9408 33.6948 82.6708 33.6948C83.0059 33.6948 83.2838 33.6588 83.5036 33.5834L83.5555 35.4053C83.1862 35.582 82.6998 35.6709 82.0974 35.6709C81.3568 35.6709 80.7782 35.3817 80.3604 34.8033C79.9444 34.2249 79.7351 33.256 79.7351 31.8921V26.449H78.5038V24.6485H79.7351V22.6713L81.5767 21.9601V24.6485H83.6435V26.4535V26.4535ZM92.9501 29.9633C92.9501 31.6232 92.5789 32.9859 91.8384 34.0516C91.0636 35.1487 90.0329 35.6956 88.7479 35.6956C87.5079 35.6956 86.522 35.1701 85.7868 34.1202C85.0515 33.068 84.6839 31.7424 84.6839 30.1434C84.6839 28.47 85.0638 27.0994 85.8211 26.0337C86.58 24.9669 87.602 24.4335 88.8869 24.4335C90.1252 24.4335 91.1199 24.9602 91.8727 26.0112C92.5921 27.0308 92.9501 28.3474 92.9501 29.9633ZM91.0064 30.0185C91.0064 29.0293 90.8393 28.1808 90.5042 27.4708C90.1111 26.6133 89.5483 26.1845 88.8192 26.1845C88.0681 26.1845 87.4921 26.6133 87.0998 27.4708C86.7639 28.1808 86.5967 29.0439 86.5967 30.0635C86.5967 31.0537 86.7639 31.9045 87.0998 32.6123C87.5052 33.4698 88.0707 33.8985 88.8033 33.8985C89.5201 33.8985 90.0821 33.4608 90.4884 32.5909C90.8332 31.864 91.0064 31.0099 91.0064 30.0185ZM99.0475 26.7629C98.8524 26.7179 98.6546 26.6957 98.4565 26.6965C97.7968 26.6965 97.2868 27.0139 96.9279 27.6531C96.6166 28.2157 96.4601 28.9269 96.4601 29.7855V35.4515H94.585V28.0537C94.5867 26.9201 94.5685 25.7866 94.5305 24.6541H96.1637L96.2323 26.7202H96.2842C96.4829 26.0101 96.7942 25.4373 97.2217 25.0086C97.6129 24.6339 98.0883 24.4311 98.5769 24.4302C98.7502 24.4302 98.9067 24.4459 99.0457 24.4741L99.0475 26.7629V26.7629ZM107.433 29.5413C107.438 29.906 107.415 30.2705 107.365 30.6295H101.74C101.761 31.6963 102.033 32.5133 102.556 33.0759C103.03 33.5778 103.643 33.8299 104.396 33.8299C105.228 33.8299 105.988 33.6611 106.672 33.3201L106.965 34.9845C106.167 35.4301 105.224 35.6518 104.136 35.6518C102.827 35.6518 101.8 35.1589 101.053 34.1754C100.307 33.1907 99.9331 31.8673 99.9331 30.2098C99.9331 28.5826 100.28 27.2266 100.976 26.1451C101.704 24.9906 102.688 24.4133 103.927 24.4133C105.143 24.4133 106.064 24.9906 106.689 26.1451C107.184 27.06 107.433 28.1943 107.433 29.5413V29.5413ZM105.645 28.919C105.658 28.2067 105.535 27.5934 105.281 27.0746C104.957 26.4062 104.457 26.0731 103.788 26.0731C103.175 26.0731 102.675 26.3983 102.295 27.051C101.983 27.5698 101.798 28.1932 101.74 28.9168L105.645 28.919Z" fill="white"/>
<path d="M39.7623 15.1814C39.2408 15.1814 38.7896 15.1488 38.4141 15.0936V7.85341C38.9393 7.74959 39.4701 7.69842 40.0015 7.70036C42.1518 7.70036 43.1421 9.05411 43.1421 11.2608C43.1421 13.8063 41.9724 15.1814 39.7623 15.1814ZM40.0771 8.62874C39.7869 8.62874 39.5398 8.65125 39.3349 8.70526V14.2092C39.4457 14.2317 39.6585 14.2418 39.9575 14.2418C41.3665 14.2418 42.1685 13.2155 42.1685 11.2935C42.1685 9.57963 41.443 8.62874 40.0771 8.62874V8.62874ZM46.2282 15.2366C45.0163 15.2366 44.2309 14.0786 44.2309 12.5066C44.2309 10.8681 45.033 9.70004 46.2968 9.70004C47.4911 9.70004 48.2941 10.8028 48.2941 12.4199C48.2941 14.0786 47.4665 15.2366 46.2282 15.2366ZM46.2634 10.562C45.5976 10.562 45.1711 11.3587 45.1711 12.4728C45.1711 13.5655 45.6064 14.3622 46.2546 14.3622C46.9027 14.3622 47.3381 13.5103 47.3381 12.4503C47.3381 11.37 46.9115 10.562 46.2634 10.562ZM55.205 9.80919L53.9078 15.1162H53.0626L52.5252 12.8115C52.3916 12.2478 52.2804 11.6758 52.1919 11.0977H52.1743C52.1066 11.6761 51.9782 12.2556 51.8419 12.8115L51.2702 15.1162H50.4162L49.1955 9.80919H50.1427L50.6124 12.3321C50.7232 12.9331 50.8164 13.5002 50.8938 14.0359H50.9114C50.9791 13.5891 51.0899 13.031 51.2526 12.3434L51.8419 9.81032H52.5929L53.1567 12.2894C53.293 12.8903 53.4038 13.48 53.49 14.037H53.5146C53.5744 13.4912 53.6685 12.9117 53.7961 12.2894L54.3 9.81032L55.205 9.80919V9.80919ZM59.9805 15.1162H59.0588V12.0688C59.0588 11.1303 58.7774 10.6599 58.2225 10.6599C57.6763 10.6599 57.3008 11.2608 57.3008 11.9597V15.1162H56.3791V11.3261C56.3791 10.8569 56.3703 10.3538 56.3448 9.80807H57.1557L57.1988 10.6273H57.2243C57.4723 10.0601 57.9753 9.70004 58.5391 9.70004C59.4097 9.70004 59.9814 10.5519 59.9814 11.9383L59.9805 15.1162V15.1162ZM62.5222 15.1162H61.5996V7.37402H62.5222V15.1162ZM65.8827 15.2366C64.6716 15.2366 63.8854 14.0786 63.8854 12.5066C63.8854 10.8681 64.6875 9.70004 65.9504 9.70004C67.1456 9.70004 67.9477 10.8028 67.9477 12.4199C67.9486 14.0786 67.1201 15.2366 65.8827 15.2366ZM65.917 10.562C65.2512 10.562 64.8247 11.3587 64.8247 12.4728C64.8247 13.5655 65.2609 14.3622 65.9073 14.3622C66.5564 14.3622 66.9908 13.5103 66.9908 12.4503C66.9917 11.37 66.566 10.562 65.917 10.562V10.562ZM71.5817 15.1162L71.5148 14.5051H71.4902C71.2088 14.9969 70.7981 15.2366 70.2774 15.2366C69.5342 15.2366 69.0066 14.5704 69.0066 13.6746C69.0066 12.3648 69.894 11.6873 71.4304 11.6873V11.5894C71.4304 10.8906 71.141 10.5406 70.5694 10.5406C70.1604 10.5406 69.8016 10.6723 69.4859 10.9345L69.2986 10.1592C69.682 9.85308 70.1604 9.70004 70.7224 9.70004C71.8059 9.70004 72.353 10.4315 72.353 11.8955V13.8502C72.353 14.3858 72.3714 14.8011 72.4128 15.1173L71.5817 15.1162V15.1162ZM71.455 12.4728C70.4313 12.4728 69.9177 12.7901 69.9177 13.543C69.9177 14.1 70.1824 14.3723 70.55 14.3723C71.0188 14.3723 71.455 13.9143 71.455 13.292V12.4728V12.4728ZM76.8286 15.1162L76.7855 14.2643H76.76C76.4953 14.908 76.0503 15.2366 75.4285 15.2366C74.4285 15.2366 73.688 14.1113 73.688 12.5279C73.688 10.8681 74.4558 9.69891 75.5041 9.69891C76.0591 9.69891 76.4522 9.9386 76.6738 10.4202H76.6923V7.37402H77.6149V13.6859C77.6149 14.199 77.6245 14.6795 77.6492 15.1162H76.8286ZM76.6923 11.9934C76.6923 11.2507 76.308 10.6172 75.7214 10.6172C75.038 10.6172 74.6203 11.3925 74.6203 12.4841C74.6203 13.5542 75.0538 14.2868 75.7029 14.2868C76.2825 14.2868 76.6923 13.642 76.6923 12.8779V11.9934ZM83.4642 15.2366C82.2532 15.2366 81.4678 14.0786 81.4678 12.5066C81.4678 10.8681 82.2699 9.70004 83.5328 9.70004C84.728 9.70004 85.5301 10.8028 85.5301 12.4199C85.531 14.0786 84.7034 15.2366 83.4642 15.2366ZM83.4985 10.562C82.8337 10.562 82.4071 11.3587 82.4071 12.4728C82.4071 13.5655 82.8425 14.3622 83.4897 14.3622C84.1388 14.3622 84.5733 13.5103 84.5733 12.4503C84.575 11.37 84.1485 10.562 83.4985 10.562ZM90.4868 15.1162H89.5643V12.0688C89.5643 11.1303 89.2828 10.6599 88.7279 10.6599C88.1817 10.6599 87.8071 11.2608 87.8071 11.9597V15.1162H86.8845V11.3261C86.8845 10.8569 86.8757 10.3538 86.8502 9.80807H87.6611L87.7042 10.6273H87.7297C87.9768 10.0601 88.4808 9.69891 89.0436 9.69891C89.9143 9.69891 90.4868 10.5508 90.4868 11.9372V15.1162ZM96.688 10.6937H95.674V13.2706C95.674 13.9267 95.8516 14.2542 96.2105 14.2542C96.3732 14.2542 96.5095 14.2317 96.6194 14.199L96.6449 15.0948C96.4664 15.1825 96.2272 15.2264 95.9299 15.2264C95.2035 15.2264 94.769 14.7133 94.769 13.3697V10.6937H94.1639V9.80919H94.769V8.83693L95.674 8.48695V9.80807H96.688V10.6937V10.6937ZM101.567 15.1162H100.647V12.0913C100.647 11.1416 100.366 10.6611 99.8101 10.6611C99.3326 10.6611 98.8876 11.0763 98.8876 11.9169V15.1162H97.9668V7.37402H98.8876V10.562H98.906C99.1963 9.98362 99.6167 9.69891 100.153 9.69891C101.031 9.69891 101.567 10.5722 101.567 11.9597V15.1162V15.1162ZM106.566 12.7463H103.8C103.818 13.7512 104.338 14.3183 105.107 14.3183C105.516 14.3183 105.893 14.2305 106.225 14.0674L106.368 14.8866C105.976 15.1049 105.514 15.2141 104.977 15.2141C103.68 15.2141 102.912 14.1653 102.912 12.5392C102.912 10.912 103.698 9.68878 104.873 9.68878C105.933 9.68878 106.598 10.6937 106.598 12.2117C106.604 12.3909 106.593 12.5703 106.566 12.7463V12.7463ZM105.721 11.9056C105.721 11.0864 105.398 10.508 104.809 10.508C104.28 10.508 103.861 11.0977 103.801 11.9056H105.721V11.9056Z" fill="white"/>
<defs>
<linearGradient id="paint0_linear" x1="87.0314" y1="45.1195" x2="87.0314" y2="-117.172" gradientUnits="userSpaceOnUse">
<stop stop-color="#1A1A1A" stop-opacity="0.1"/>
<stop offset="0.123" stop-color="#212121" stop-opacity="0.151"/>
<stop offset="0.308" stop-color="#353535" stop-opacity="0.227"/>
<stop offset="0.532" stop-color="#575757" stop-opacity="0.318"/>
<stop offset="0.783" stop-color="#858585" stop-opacity="0.421"/>
<stop offset="1" stop-color="#B3B3B3" stop-opacity="0.51"/>
</linearGradient>
</defs>
</svg>
