<svg width="135" height="102" viewBox="0 0 135 102" fill="none" xmlns="http://www.w3.org/2000/svg">
<path d="M19.9 48C23.1023 48 26.0111 47.0367 28.1525 45.475L39.8273 49.8898C39.7674 50.2539 39.7333 50.6234 39.7333 51C39.7333 55.9625 45.0718 60 51.6333 60C58.1949 60 63.5333 55.9625 63.5333 51C63.5333 49.6125 63.115 48.2969 62.3702 47.1219L78.2389 35.1203C79.7925 35.6836 81.5321 36 83.3667 36C89.9282 36 95.2667 31.9625 95.2667 27C95.2667 26.0625 95.0756 25.1586 94.7223 24.3086L108.509 16.4891C110.397 17.443 112.663 18 115.1 18C121.662 18 127 13.9625 127 9C127 4.0375 121.662 0 115.1 0C108.538 0 103.2 4.0375 103.2 9C103.2 9.9375 103.391 10.8414 103.744 11.6914L89.9581 19.5109C88.0699 18.557 85.8035 18 83.3667 18C76.8051 18 71.4667 22.0375 71.4667 27C71.4667 28.3875 71.885 29.7031 72.6298 30.8781L56.7611 42.8797C55.2075 42.3164 53.4679 42 51.6333 42C48.4311 42 45.5222 42.9633 43.3808 44.525L31.706 40.1102C31.7659 39.7461 31.8 39.3766 31.8 39C31.8 34.0375 26.4615 30 19.9 30C13.3385 30 8 34.0375 8 39C8 43.9625 13.3385 48 19.9 48ZM115.1 6C117.287 6 119.067 7.34609 119.067 9C119.067 10.6539 117.287 12 115.1 12C112.913 12 111.133 10.6539 111.133 9C111.133 7.34609 112.913 6 115.1 6ZM83.3667 24C85.5535 24 87.3333 25.3461 87.3333 27C87.3333 28.6539 85.5535 30 83.3667 30C81.1798 30 79.4 28.6539 79.4 27C79.4 25.3461 81.1798 24 83.3667 24ZM51.6333 48C53.8202 48 55.6 49.3461 55.6 51C55.6 52.6539 53.8202 54 51.6333 54C49.4465 54 47.6667 52.6539 47.6667 51C47.6667 49.3461 49.4465 48 51.6333 48ZM19.9 36C22.0868 36 23.8667 37.3461 23.8667 39C23.8667 40.6539 22.0868 42 19.9 42C17.7132 42 15.9333 40.6539 15.9333 39C15.9333 37.3461 17.7132 36 19.9 36Z" fill="#198CC1"/>
<path d="M131.045 96.0331H126.826V32.9834C126.826 31.3355 125.056 30 122.871 30H107.051C104.866 30 103.096 31.3355 103.096 32.9834V96.0331H95.1855V50.884C95.1855 49.2361 93.415 47.9006 91.2305 47.9006H75.4102C73.2256 47.9006 71.4551 49.2361 71.4551 50.884V96.0331H63.5449V74.7514C63.5449 73.1035 61.7744 71.768 59.5898 71.768H43.7695C41.585 71.768 39.8145 73.1035 39.8145 74.7514V96.0331H31.9043V62.8177C31.9043 61.1698 30.1338 59.8343 27.9492 59.8343H12.1289C9.94434 59.8343 8.17383 61.1698 8.17383 62.8177V96.0331H3.95508C1.77052 96.0331 0 97.3687 0 99.0166C0 100.664 1.77052 102 3.95508 102H131.045C133.229 102 135 100.664 135 99.0166C135 97.3687 133.229 96.0331 131.045 96.0331ZM111.006 35.9669H118.916V96.0331H111.006V35.9669ZM79.3652 53.8674H87.2754V96.0331H79.3652V53.8674ZM47.7246 77.7348H55.6348V96.0331H47.7246V77.7348ZM16.084 65.8011H23.9941V96.0331H16.084V65.8011Z" fill="#198CC1"/>
</svg>
