<svg width="106" height="101" viewBox="0 0 106 101" fill="none" xmlns="http://www.w3.org/2000/svg">
<rect width="106" height="101" fill="#DCF5FF"/>
<path d="M94.2714 31H12.7292C6.81528 31 2 35.8386 2 41.7814V89.2188C2 95.1614 6.81528 100 12.7292 100H94.2712C100.185 100 105 95.1614 105 89.2188V41.7814C105.001 35.8386 100.185 31 94.2714 31ZM100.709 89.2186C100.709 92.7851 97.8207 95.6874 94.2714 95.6874H12.7292C9.17987 95.6874 6.29162 92.7851 6.29162 89.2186V41.7814C6.29162 38.2149 9.17987 35.3126 12.7292 35.3126H94.2712C97.8205 35.3126 100.709 38.2149 100.709 41.7814V89.2186H100.709Z" fill="#198CC1"/>
<path d="M102.855 43.9375H4.14591C2.96141 43.9375 2 44.9036 2 46.0938V59.0313C2 60.2215 2.96141 61.1876 4.14591 61.1876H102.855C104.039 61.1876 105.001 60.2215 105.001 59.0313V46.0938C105.001 44.9036 104.039 43.9375 102.855 43.9375ZM100.709 56.875H6.29162V48.2499H100.709V56.875H100.709Z" fill="#198CC1"/>
<path d="M42.7711 74.1251H17.0209C15.8364 74.1251 14.875 75.0912 14.875 76.2814C14.875 77.4717 15.8364 78.4376 17.0209 78.4376H42.7711C43.9556 78.4376 44.917 77.4715 44.917 76.2812C44.917 75.091 43.9556 74.1251 42.7711 74.1251Z" fill="#198CC1"/>
<path d="M42.7711 82.7499H17.0209C15.8364 82.7499 14.875 83.7159 14.875 84.9062C14.875 86.0964 15.8364 87.0625 17.0209 87.0625H42.7711C43.9556 87.0625 44.917 86.0964 44.917 84.9062C44.9168 83.7159 43.9556 82.7499 42.7711 82.7499Z" fill="#198CC1"/>
<path d="M85.6881 69.8124H81.3965C77.8472 69.8124 74.959 72.7146 74.959 76.2811V80.5935C74.959 84.16 77.8472 87.0623 81.3965 87.0623H85.6881C89.2374 87.0623 92.1257 84.16 92.1257 80.5935V76.2811C92.1257 72.7148 89.2374 69.8124 85.6881 69.8124ZM87.8341 80.5937C87.8341 81.784 86.8727 82.7501 85.6881 82.7501H81.3965C80.212 82.7501 79.2506 81.784 79.2506 80.5937V76.2813C79.2506 75.0911 80.212 74.125 81.3965 74.125H85.6881C86.8727 74.125 87.8341 75.0911 87.8341 76.2813V80.5937Z" fill="#198CC1"/>
</svg>
